<?xml version="1.0" encoding="UTF-8"?><svg xmlns="http://www.w3.org/2000/svg" xmlns:xlink="http://www.w3.org/1999/xlink" height="452.0" preserveAspectRatio="xMidYMid meet" version="1.0" viewBox="-0.1 -0.1 366.6 452.0" width="366.6" zoomAndPan="magnify"><g id="change1_1"><path d="M365.4,50.8l0,0.2L351,60l0,0l-0.4,0.2c1,0.7,2,2.1,1.6,4.2c1.1,1.1,2.4,3.3,1.1,5.3c0.7,0.9,1.4,2.5,0.2,4.1 l-0.1,0.1l-6.4,4.2c-3.4,1.3-10.5,3.8-14.1,4.8c-1.9,1.5-29.8,31.3-43.3,45.7l-5.4,5.8c-1.9,2.1-4.6,3.2-7.3,3.2 c-1.1,0-2.2-0.2-3.2-0.6l-16.9-5.8l-1.4,3.9c-0.1,0.1-0.1,0.2-0.3,0.3c-0.1,0-0.1,0.1-0.2,0.1c-0.1,0-0.1,0-0.2,0l-8.5-3.4 c-0.1,0.2-0.1,0.5-0.2,0.7l-4.4,10.4c-0.4,0.9-0.5,2-0.4,3l14.4,85.2c0,0.1,0,0.3-0.1,0.4c-0.1,0.1-0.2,0.2-0.4,0.2h-2.8l43.7,175.6 l0.5,2l2.7,10.7l-1.2,0.5l1.2,2.4l1.4-0.2l6.9-0.8c0,0,0.1,0,0.1,0l4-0.5c0,0,0.1,0,0.1,0l5-0.6c2.3-0.3,4.5-0.8,6.7-1.7l12.5-4.9 c3.1-1.2,6.6-0.5,9.1,1.8l2.5,2.3c0.1,0.1,0.2,0.3,0.1,0.4c0,0.1-0.1,0.3-0.2,0.4l-56.6,32c-0.1,0-0.2,0.1-0.2,0.1 c-0.2,0-0.4-0.1-0.4-0.2l-3.1-5.3c-1.6-2.7-2.7-5.6-3.4-8.6l-0.5-2.3l0,0l-2.9-7l-4.7,1.9l-4.5-10.5c0,0-0.2-0.4-0.4-0.9l0,0 l-0.1-0.3c-0.2-0.5-0.4-0.8-0.4-0.8l-45.6-105.9l-4.2,12l-0.4,95c-0.1,18.4-15.1,33.3-33.5,33.2L33.2,451 C14.8,450.9-0.1,435.9,0,417.5L1.6,33.2C1.7,14.8,16.7-0.1,35.2,0l153.3,0.7c15.4,0.1,28.3,10.6,32.1,24.8l18.7,1.5 c2.1,0.2,3.8,1.9,4,4.1l0.1,2.4l-2.2,6.2l6.4,13.2c0.1,0.2,0.1,0.3,0,0.5c-0.1,0.2-0.2,0.2-0.4,0.2l-4.5,0.3l0.3,1.6 c0,0.3-0.1,0.5-0.4,0.6l-3.1,0.7l3.3,2.7c0.1,0.1,0.2,0.3,0.2,0.5l-0.8,4.3c-0.3,1.5-1.6,2.5-3.1,2.5l-4-0.1l-0.2,9l1.7,7.3 c0.8,3.3-0.4,6.7-3,8.9l31.9,14c0.2,0.1,0.4,0.4,0.3,0.6l-0.8,2.3l12.6,4.8l41.3-37.7l7.5-11.3l3.2-14.7c0.4-1.4,1.6-2.2,3-1.9 c1.4,0.3,2.8,1.5,2.7,3.3c0,0,0,0.4-0.4,7.8c0,1-0.1,1.8-0.1,2.4l26.9-15.1c0.1,0,2.6-0.6,3.8,0.7C365.8,47.8,365.9,49.1,365.4,50.8 z" fill="#231a1a"/></g><g id="change2_1"><path d="M131.5,242.1l0.7-6.7c0.8,0.7,1.5,1.4,2.2,2.2c2.9,3.5,4.3,7.9,4,12.4h-17.4v6.6h16.8l-0.6,5.6h-16.2v2.7 l-10.3-1c0-4.3,0-14.3,0-14.3l-8.2,0l0.2-2.4c0.5-5.3,3.3-9.8,7.3-12.7l-0.4,4l0.1,0.1c0,0,1.4,2.7,4.8,1.7c0.3,0.7,0.9,1.9,2.1,2.5 c1,0.5,2.3,0.4,3.7-0.3c0.5,0.5,1.5,1.4,2.8,1.6c0.2,0,0.3,0,0.5,0c0.9,0,1.7-0.3,2.5-0.9c1.3,0.8,3.7,1.4,5.4-0.9L131.5,242.1z M201.9,384.9v35.8h-35.8v-5.8l-1.3,3.7l3.1,17.2l18.5,0.1c12.9,0.1,23.4-10.4,23.5-23.3l0.3-66.9l-25.7,39.3L201.9,384.9 L201.9,384.9z M141.2,420.6l10.4,15L33.4,435c-12.9-0.1-23.3-10.6-23.3-23.5l1.6-375c0.1-12.9,10.6-23.3,23.5-23.3l26,0.1l10.4,0.1 c4,0,7.2,3.4,7.2,7.6l0,5.4c0,4.2,3.2,7.6,7.2,7.6l57.9,0.3c4,0,7.2-3.3,7.2-7.5l0-5.4c0-4.2,3.3-7.5,7.2-7.5l29.7,0.1 c9.5,0.1,17.7,5.8,21.3,14c-3.7-0.3-7.3,1.5-9.2,4.7l-3,4.8c-1.7,2.6-2.2,5.8-1.5,8.9l0.6,2.7c0.5,2.2,0,4.5-1.4,6.3l-3,3.8 c-2.5,3.2-3.4,7.4-2.5,11.4c0.2,0.8,0,1.7-0.5,2.4l-6.1,8.8c-2.2,3.1-2.7,7.1-1.5,10.6l0.3,0.8c0.6,1.6,2,2.7,3.7,2.7l7.4,0.2 l-0.6,1c0,0.1-0.1,0.1-0.1,0.2l-0.1,1.9l-18.7,12.3c-0.1,0.1-0.2,0.2-0.2,0.3s0,0.3,0.1,0.4l2.6,3.7l-27.4,23.4 c-2.5,2.2-4.4,4.9-5.6,8.1l-0.7,2H121v6.6h18.7l-2,5.6H121v6.6h14.3l-2,5.6H121v6.6h9.9l-2,5.6H121v6.6h5.4l-5.2,14.3h-1.3l1,0.8 l-0.6,1.7l-9.2,15.1l-0.5,5.1c-1.4,0.7-2.8,1.6-4,2.6c-4.5,3.7-7.3,8.9-7.8,14.7l-0.3,2.8l-63.9-0.2H34v78.2l40.1,0.1l-2.9,16.2 l76.9,7.5l0.5,0l2-42.1l2.4-1.8h-2.4l0.7-14.3h11.7v-6.6h-11.4l0.3-5.6h27.2v-6.6h-26.9l0.3-5.6H167v-6.6h-25.7l0.6-5.6h41V250 h-40.4c0.3-5.4-1.4-10.7-4.9-14.9c-0.8-1-1.7-1.9-2.6-2.7c0.3-0.2,0.5-0.5,0.6-0.9l0.9-5.2l0.8-11.9l2.9-6.3l2.6,1.9l-1.8,5.4 l4.6-3.4l4.6,3.4l-1.8-5.4l4.6-3.4h-5.7l-1.8-5.4l-1.8,5.4h-3.1l6.6-14.3h15.8v-6.6h-12.8l8.1-17.8h24.2v-6.6h-21.2l2.6-5.6h18.7 v-6.6h-10.2l17-12.4l-2.7,40.6l-6.2,53.9c0,0.1,0,0.3,0.1,0.4s0.2,0.2,0.4,0.2h6.5l-1,85.1c0,2.5-0.7,4.9-1.9,7.1l-8,14.3 c-1.7,0.1-3.5,0.6-5.1,1.3c-8.9,3.7-13.1,13.9-9.4,22.7c0.1,0.4,0.3,0.7,0.5,1.1l-11.2,20c-0.2-0.1-0.4,0-0.6,0.2 c-0.2,0.2-0.1,0.5,0.1,0.7l-0.3,0.6h-28.6v35.8L141.2,420.6L141.2,420.6L141.2,420.6z M165.4,210.1l4.6-3.4h-5.7l-1.8-5.4l-1.8,5.4 h-5.7l4.6,3.4l-1.8,5.4l4.6-3.4l4.6,3.4L165.4,210.1z M155.1,307.5l4.6,3.4l-1.8,5.4l4.6-3.4l4.6,3.4l-1.8-5.4l4.6-3.4h-5.7 l-1.8-5.4l-1.8,5.4H155.1z M148.5,107.6l4.6-3.3h-5.7l-1.8-5.4l-1.8,5.4h-5.7l4.6,3.3L141,113l4.6-3.3l4.6,3.3L148.5,107.6z M163.2,89.9v-6.6H121v6.6H163.2z M165.4,107.6l4.6-3.3h-5.7l-1.8-5.4l-1.8,5.4h-5.7l4.6,3.3L158,113l4.6-3.3l4.6,3.3L165.4,107.6z M179.3,71.1h-58.3v6.6h58.3V71.1z M120.9,53.3h61.8v-6.6h-61.8V53.3z M120.9,65.5H177v-6.6h-56.1L120.9,65.5L120.9,65.5z M119.9,104.2l4.6,3.3l-1.8,5.4l4.6-3.3l4.6,3.3l-1.8-5.4l4.6-3.3h-5.7l-1.8-5.4l-1.8,5.4H119.9z M34.5,124.9l76.6,0.2V47l-76.6-0.3 C34.5,46.7,34.5,124.9,34.5,124.9z M34,226.8l76.6,0.1v-78.2L34,148.6V226.8z M43.7,372.9c9.5,1.5,18.4-4.9,20-14.4 s-4.9-18.4-14.4-20s-18.4,4.9-20,14.4S34.2,371.4,43.7,372.9z M69.6,384.9H33.8v35.8h35.7V384.9z M113.7,384.9H77.9v35.8h35.8V384.9 z" fill="#0a837f"/></g><g id="change3_1"><path d="M110.2,48l-74.6-0.3v76.2l74.6,0.2V48z M91.8,111.8c-2.1,2.1-10.7,3.2-19.5,3.2c-9,0-18.1-1.1-20.5-3.3 l-0.2-0.2l0-0.3c2-11.4,4.7-23.3,10.8-33.2l-1.4-12.7l0.2-0.2c1.8-1.8,3.2-3.9,3.9-6.1c0.3-0.9,0.5-1.9,0.6-3l0-0.5l1.8,0l0,0.5 c0,0.8,0.2,1.8,0.4,2.4c0.6,2.1,2.1,3.5,3.8,3.7c1.7-0.1,3.2-1.5,3.7-3.6c0.2-0.6,0.3-1.6,0.4-2.4l0-0.5l1.8,0l0,0.5 c0.1,1.1,0.3,2.1,0.6,3c0.8,2.2,2.1,4.3,3.9,6.1l0.2,0.2l-1.3,12.7c5.7,8.9,8.7,21.8,10.8,33.2l0.1,0.3L91.8,111.8z M125.7,107.2 l-2.7-2h3.3l1-3.2l1,3.2h3.4l-2.7,2l1,3.2l-2.7-2l-2.7,2L125.7,107.2z M150,105.2l-2.7,2l1,3.2l-2.7-2l-2.7,2l1-3.2l-2.7-2h3.4 l1-3.2l1,3.2H150z M167,105.2l-2.7,2l1,3.2l-2.7-2l-2.7,2l1-3.2l-2.7-2h3.4l1-3.2l1,3.2H167z M181.8,52.3h-59.8v-4.6h59.8V52.3z M176,64.5h-54.1v-4.6H176V64.5z M121.9,72.1h56.3v4.6h-56.3V72.1z M162.2,88.9H122v-4.6h40.2V88.9z M109.6,149.8L35,149.6v76.2 l74.6,0.1V149.8z M75,210.8l-0.2-0.2c-5-6.8-9.3-11.8-13-15.2c-1.2-0.6-2.1-0.7-2.9-0.3c-2.8,1.6-3.6,9-4,16l0,0.5l-2.7,0l-3.7-19.8 l0,0l-0.2-0.9c-1.8-10.3,1.6-15.7,12.7-20l0.3-0.1l0.2,0.3c6.3,8.3,21.1,24.7,22.4,26.1c1.8,0.5,17.6,5.3,18,13.1l0,0.5L75,210.8z M141.2,207.8h3.4l1-3.2l1,3.2h3.4l-2.7,2l1,3.2l-2.7-2l-2.7,2l1-3.2L141.2,207.8z M167,207.8l-2.7,2l1,3.2l-2.7-2l-2.7,2l1-3.2 l-2.7-2h3.4l1-3.2l1,3.2H167z M164.8,154.9l6.3-4.6h10.6v4.6H164.8z M141.7,150.3l-1.7,4.6h-18.1v-4.6H141.7z M159,167.1l2.1-4.6 h20.7v4.6H159z M137.3,162.4l-1.7,4.6H122v-4.6H137.3z M132.9,174.6l-1.7,4.6H122v-4.6H132.9z M128.4,186.8l-1.7,4.6h-4.8v-4.6 H128.4z M147.8,191.5l2.1-4.6h12.2v4.6H147.8z M77.5,308.2l-3.3,18.4L35,326.6v-76.2l63.3,0.2l-1.2,12l-11.2-1.1l-2,10.9 c-7.6-0.9-19.7-1.5-32.5,1.3c0,0-0.1,0-0.1,0l-0.3,0.1v0l-0.2,0l0.1,0.4c-3.1,8.8-4.1,18.7-3.1,29.4l0,0.2l0.1,0.1 c3,3,13.1,4.5,23.4,4.5C73.5,308.4,75.6,308.3,77.5,308.2z M101.1,263l1.2-12.4l7.3,0v13.2L101.1,263z M160.9,310.5l-2.7-2h3.4 l1-3.2l1,3.2h3.4l-2.7,2l1,3.2l-2.7-2l-2.7,2L160.9,310.5z M141.9,255.6l0.4-4.6h39.5v4.6H141.9z M138.3,251l-0.4,4.6H122V251H138.3 z M136.8,266.5l-14.8-1.5v-1.8h15.2L136.8,266.5z M140.8,266.8l0.4-3.6H166v4.6h-15.3L140.8,266.8z M152.1,280l0.2-4.6h26v4.6H152.1 z M151.5,292.2l0.2-4.6h10.5v4.6H151.5z M34.8,385.9h33.7v33.8H34.8V385.9z M78.9,385.9h33.8v33.8H78.9V385.9z M136.3,413.6l4.2,6.1 H123v-33.8h27l-4.4,7.9l8.3,5.8l-2.2,4.9l-4.3,1.2c-2.6,0.7-5,2.1-7.1,3.8l-3.9,3.4C136.2,413.1,136.1,413.4,136.3,413.6z M174.4,400.3l9.4-14.4h17v33.8h-33.8V412l0.9-2.6l0.3,0.2l5.6-8.5l0,0c0.1,0.1,0.2,0.1,0.3,0.1c0.1,0,0.3-0.1,0.4-0.2 C174.8,400.8,174.7,400.5,174.4,400.3L174.4,400.3z M302.7,429.8l-1.3-5.8l5.8-0.7v4.7c0,0.3,0.2,0.5,0.5,0.5s0.5-0.2,0.5-0.5v-4.8 l3.1-0.4v4.7c0,0.3,0.2,0.5,0.5,0.5s0.5-0.2,0.5-0.5v-4.8l3.4-0.4v4.1c0,0.3,0.2,0.5,0.5,0.5s0.5-0.2,0.5-0.5v-4.2l0.2,0 c2.4-0.3,4.7-0.9,7-1.7l12.5-4.9c2.7-1.1,5.9-0.5,8,1.5l2,1.9l-55.5,31.4l-2.8-4.9c-1.5-2.6-2.6-5.4-3.2-8.4l-0.3-1.3l4.6,2.8 c0.1,0,0.2,0.1,0.3,0.1s0.2,0,0.3-0.1l12.9-8.3C302.7,430.2,302.8,430,302.7,429.8z M299.5,425.9l0-1.7l0.9-0.1l1.2,5.6l-12.3,7.9 l-3.9-2.4l5-0.2c2.2-0.1,4.2-0.9,5.9-2.3C298.2,430.9,299.4,428.5,299.5,425.9z M302.2,429.9l-1.3-5.9l0.5-0.1l1.3,5.8 c0,0.2,0,0.4-0.2,0.5l-12.9,8.3c-0.1,0-0.2,0.1-0.3,0.1s-0.2,0-0.3-0.1l-4.6-2.8l-0.1-0.5l0.2,0l4.8,2.9L302.2,429.9z M300.4,424 l-0.9,0.1l0,0l1.4-0.2l1.3,5.9l-12.9,8.2l-4.8-2.9l0.9,0l3.9,2.4l12.3-7.9L300.4,424z M152.8,435.6l14.1,0.1l0.1,0.5 c0.4,2.5,2.6,4.4,5.2,4.4h6.2c4,0,7.5,2.8,8.3,6.7l0.5,2.3l-22.4,0.6c-1.2,0-2.3-0.5-2.9-1.5L152.8,435.6z M162.6,420.9l1.4-1.4 l0.3,1.6c-0.1,0-0.1,0-0.2,0l-5.2,0.7c-0.3,0-0.5,0.3-0.4,0.6c0,0.2,0.2,0.4,0.5,0.4c0,0,0,0,0.1,0l5.2-0.7c0.1,0,0.2-0.1,0.2-0.1 l0.6,3.1l-5.1,0.7c-0.3,0-0.5,0.3-0.4,0.6c0,0.2,0.2,0.4,0.5,0.4c0,0,0,0,0.1,0l5.1-0.7l0.6,3.4l-4.3,0.6c-0.3,0-0.5,0.3-0.4,0.6 c0,0.2,0.2,0.4,0.5,0.4c0,0,0,0,0.1,0l4.3-0.6l0.9,5.2l-14.1-0.1l-10.4-15h11.2l0.9,1.1c0.1,0.1,0.2,0.2,0.4,0.2c0,0,0,0,0.1,0 l7.4-0.9C162.4,421,162.5,420.9,162.6,420.9z M148.8,415l3.9,4.6h-11l-4.3-6.3l3.6-3.1c1.9-1.7,4.2-2.9,6.7-3.6l3.5-1l-0.1,0.2 l-2.3,8.8C148.7,414.7,148.7,414.9,148.8,415z M153.6,420.6h-11.2l-0.4-0.5h11.1L153.6,420.6z M153.1,420.1H142l-0.4-0.5h11 L153.1,420.1z M154.9,420.6h2.3l-2.1,0.2L154.9,420.6z M162.2,418.9h0.8L162,420l-4.2,0.5v-2.6C159.1,418.6,160.7,418.9,162.2,418.9 z M155.4,416.3c0.4,0.4,0.9,0.7,1.4,1v2.3H154l-4.3-5l1.9-7.3v1.1c0,2.9,1.2,5.7,3.4,7.7L155.4,416.3z M157.8,417.9v2.6l-0.6,0.1 h-2.3l-0.4-0.5h2.8v-2.5C157.4,417.7,157.6,417.8,157.8,417.9z M156.8,417.4c0.2,0.1,0.3,0.2,0.5,0.3v2.5h-2.8l-0.4-0.5h2.7V417.4z M162.2,420.5l1.6-1.6h0.1l0.1,0.5l-1.4,1.4c-0.1,0.1-0.2,0.1-0.3,0.1l-7.4,0.9c0,0,0,0-0.1,0c-0.1,0-0.3-0.1-0.4-0.2l-0.9-1.1h0.7 l0.7,0.8L162.2,420.5z M153.4,419.6h-0.7l-3.9-4.6c-0.1-0.1-0.1-0.3-0.1-0.5l2.3-8.8l0.1-0.2l0.5-0.1v0.2l-0.1,0.3l-2.3,8.8 L153.4,419.6z M153.8,420.1l0.4,0.5h-0.7l-0.4-0.5H153.8z M153.8,420.1h-0.7l-0.4-0.5h0.7L153.8,420.1z M163.1,418.9h0.7l-1.6,1.6 l-7.4,0.9l-0.7-0.8h0.6l0.2,0.2l2.1-0.2h0.6v-0.1l4.2-0.5L163.1,418.9z M154,419.6h-0.6l-4.2-4.9l2.3-8.8l0.1-0.3v1.7l-1.9,7.3 L154,419.6z M154.4,420.1l0.4,0.5h-0.6l-0.4-0.5H154.4z M157.1,420.6l0.6-0.1v0.1H157.1z M154,419.6l0.4,0.5h-0.6l-0.4-0.5H154z M224.4,310.9l0.2,0.5c0,0-0.1,0-0.1,0c-0.1,0-0.2,0-0.2-0.1L224.4,310.9z M224.7,311.3C224.6,311.3,224.6,311.3,224.7,311.3 l-0.3-0.5l-0.1,0.4c-0.1,0-0.2-0.1-0.2-0.2l-3.5-8.9l0-2.7l4.4,11.3C225.1,310.9,224.9,311.2,224.7,311.3z M210.5,273.8l10.1,25.6 l0,2.7l-10.1-25.6L210.5,273.8z M210.5,273.8l0,2.7l-4-10.2c-1.2-3.2-2.2-6.5-2.8-9.8l-1.9-11c-0.1-0.3,0.1-0.5,0.4-0.6 c0.3-0.1,0.5,0.1,0.6,0.4l1.9,11c0.6,3.3,1.5,6.5,2.7,9.6L210.5,273.8z M151.4,383.4l-0.5,0.9c-0.2-0.2-0.2-0.5-0.1-0.7 C151,383.4,151.2,383.4,151.4,383.4z M173.9,401.1L173.9,401.1l0.2-0.5l0.1,0l-0.1,0l0.3-0.4l0.1,0.1c0.2,0.2,0.3,0.5,0.1,0.7 c-0.1,0.1-0.2,0.2-0.4,0.2C174.1,401.2,174,401.2,173.9,401.1z M150.9,384.3l0.5-0.9c0.1,0,0.1,0,0.1,0.1l1.9,1.4h-0.8l-1.3-1l1.3,1 h-0.9L150.9,384.3C150.9,384.3,150.9,384.3,150.9,384.3z M157.8,388.7v-0.6l8.3,6.1v0.6L157.8,388.7z M157.8,389.3v-0.6l8.3,6.1v0.6 L157.8,389.3z M156.8,388l-2.8-2.1h0.8l2,1.5L156.8,388L156.8,388z M156.8,388.6l-3.7-2.7h0.9l2.8,2.1L156.8,388.6L156.8,388.6z M152.6,384.9h0.8l0.7,0.5h-0.8L152.6,384.9z M157.3,387.7l0.5,0.4v0.6l-0.5-0.4V387.7z M152.4,385.4l-0.7-0.5h0.9l0.7,0.5H152.4z M157.3,388.9v-0.6l0.5,0.4v0.6L157.3,388.9z M153.9,385.9l-0.7-0.5h0.8l0.7,0.5H153.9z M152.4,385.4h0.9l0.7,0.5h-0.9L152.4,385.4z M156.8,388l0.5,0.4v0.6l-0.5-0.4V388z M156.8,387.3l0.5,0.4v0.6l-0.5-0.4V387.3z M173.9,401.1l-6.8-5v-0.6l7,5.2L173.9,401.1z M174.1,400.7l-7-5.2v-0.6l7.3,5.4L174.1,400.7z M166.1,394.8v-0.6l0.5,0.4v0.6L166.1,394.8z M166.1,395.4v-0.6l0.5,0.4v0.6 L166.1,395.4z M166.6,395.8v-0.6l0.5,0.4v0.6L166.6,395.8z M167.1,395.5l-0.5-0.4v-0.6l0.5,0.4V395.5z M270.7,418.5l0.4,0.9 c0,0-0.1,0-0.1,0c-0.2,0-0.4-0.1-0.5-0.3C270.5,418.8,270.5,418.6,270.7,418.5z M296.8,410l-0.1-0.5l0,0c0.3-0.1,0.5,0,0.6,0.3 c0.1,0.3,0,0.5-0.3,0.6l-0.1,0L296.8,410L296.8,410L296.8,410z M270.8,418.4l25.9-8.9l0.1,0.5l-25.8,8.8l25.8-8.9l0.1,0.5l-25.8,8.8 c0,0,0,0,0,0l-0.4-0.9C270.8,418.4,270.8,418.4,270.8,418.4z M110.6,267.8c0-1.1,0-2,0-3l10.3,1v2.9h15.6l-0.1,1.5L110.6,267.8z M148.5,310.9l1.1-0.8l-0.2,3.8L148.5,310.9z M120.9,274.4h15.5l-25.9-2.5c0,22.8,0,55.9,0,55.9l-35.5-0.1l-2.7,15.3l75.3,7.4 l1.7-34.7l-3.7-2.7l-4.6,3.4l1.8-5.4l-4.6-3.4h5.7l1.8-5.4l1.8,5.4h2.4l0.7-14.3h-29.5v-6.6h29.8l0.3-5.6h-30.1L120.9,274.4 L120.9,274.4z M125.6,307.5l1.8-5.4l1.8,5.4h5.7l-4.6,3.4l1.8,5.4l-4.6-3.4l-4.6,3.4l1.8-5.4l-4.6-3.4H125.6z M140.6,268.8h10.1 l0.9,0.1l-0.3,5.5H140L140.6,268.8z M101,263.9l8.6,0.8v3l-8.9-0.9L101,263.9z M109.6,326.7l-34.3-0.1l3.3-18.5 c7.6-0.5,14.2-1.9,16.8-4.2l0.1-0.1l0-0.2c1.4-8.8,0.1-21.5-3.1-29.5l0-0.3l-0.1,0l0,0l-0.3,0h0c-0.2-0.1-2.9-0.7-7.1-1.2l1.8-10 l10.3,1l-0.7,6.9l13.2,1.3L109.6,326.7L109.6,326.7L109.6,326.7z M110.1,267.8v-3l0.5,0c0,0.9,0,1.9,0,3L110.1,267.8z M110.6,327.7 l-35.5-0.1l0.1-0.5l34.9,0.1v-55.4l0.5,0C110.6,294.6,110.6,327.7,110.6,327.7z M110.1,327.2l-34.9-0.1l0.1-0.5l34.3,0.1v-54.9 l0.5,0V327.2z M109.6,267.7v-3l0.5,0v3L109.6,267.7z M123,308.5h3.4l1-3.2l1,3.2h3.4l-2.7,2l1,3.2l-2.7-2l-2.7,2l1-3.2L123,308.5z M124.5,310.9l-1.8,5.4l4.6-3.4l4.6,3.4l-1.8-5.4l4.6-3.4h-5.7l-1.8-5.4l-1.8,5.4h-5.7L124.5,310.9z M126,308l1.4-4.3l1.4,4.3h4.5 l-3.7,2.7l1.4,4.3l-3.7-2.7l-3.7,2.7l1.4-4.3l-3.7-2.7H126z M125.1,310.7l-1.4,4.3l3.7-2.7l3.7,2.7l-1.4-4.3l3.7-2.7h-4.5l-1.4-4.3 L126,308h-4.5L125.1,310.7z M126.3,308.5l1-3.2l1,3.2h3.4l-2.7,2l1,3.2l-2.7-2l-2.7,2l1-3.2l-2.7-2H126.3z M146.7,308.5h3l0,0.2 l-2.4,1.7l1,3.2l-2.7-2l-2.7,2l1-3.2l-2.7-2h3.4l1-3.2L146.7,308.5z M147.4,307.5h2.4l0,0.5H147l-1.4-4.3l-1.4,4.3h-4.5l3.7,2.7 L142,315l3.7-2.7l3.7,2.7l-1.4-4.3l1.8-1.3l0,0.6l-1.1,0.8l0.9,2.9l-0.1,1.8l-3.7-2.7l-4.6,3.4l1.8-5.4l-4.6-3.4h5.7l1.8-5.4 L147.4,307.5z M147,308h2.7l0,0.5h-3l-1-3.2l-1,3.2h-3.4l2.7,2l-1,3.2l2.7-2l2.7,2l-1-3.2l2.4-1.7l0,0.6l-1.8,1.3l1.4,4.3l-3.7-2.7 L142,315l1.4-4.3l-3.7-2.7h4.5l1.4-4.3L147,308z M121.9,266l14.7,1.5l0,0.4H122L121.9,266L121.9,266z M140.6,268.3h4.9l5.1,0.5 h-10.1L140.6,268.3z M121.4,268.3h15.1l-0.1,0.5h-15.6v-2.9l0.5,0L121.4,268.3L121.4,268.3L121.4,268.3z M121.9,267.8h14.7l-0.1,0.5 h-15.2V266l0.5,0C121.9,266,121.9,267.8,121.9,267.8z M140.6,268.3l0.1-0.5l4.9,0.5H140.6z M121.9,275.4h29.3l-0.2,4.6H122 L121.9,275.4L121.9,275.4z M140,274.4h11.3l0,0.5h-29.9v5.6H151l0,0.5H121v-6.6h15.5l3.5,0.4L140,274.4z M121.4,274.9h29.9l0,0.5 h-29.3v4.6h29.1l0,0.5h-29.6V274.9z M121.9,287.6h28.8l-0.2,4.6H122L121.9,287.6L121.9,287.6z M120.9,286.6h29.8l0,0.5h-29.3v5.6h29 l0,0.5H121L120.9,286.6L120.9,286.6z M121.4,287.1h29.3l0,0.5h-28.8v4.6h28.5l0,0.5h-29V287.1z M92.2,276.4c2.6,7.7,3.6,19,2.4,26.9 c-2.5,2-8.8,3.3-15.9,3.8l3.2-17.7C89.4,286.4,91.6,279.8,92.2,276.4z M92.5,274.2L92.5,274.2c3.2,7.9,4.5,20.5,3.1,29.4l0,0.2 l-0.1,0.1c-2.6,2.3-9.3,3.7-16.8,4.2l0.1-0.6c7.4-0.5,13.9-1.9,16.4-4c1.3-8.4,0.1-20.3-2.7-28.2C92.5,274.7,92.5,274.3,92.5,274.2z M92.1,273.8C92.1,273.8,92.1,273.8,92.1,273.8L92.1,273.8l0.2,0l0,0L92.1,273.8z M92.2,276.4c0.1-0.4,0.1-0.7,0.2-1 c2.8,7.9,4,19.9,2.7,28.2c-2.5,2.2-9,3.5-16.4,4l0.1-0.5c7.1-0.5,13.3-1.8,15.9-3.8C95.8,295.4,94.8,284.1,92.2,276.4z M84.8,273.5 c2.2,0.3,4.4,0.7,6.7,1.1c-0.1,2-1.2,10-9.3,13.6L84.8,273.5z M84.8,273.5L84.8,273.5c3.4,0.4,5.8,0.9,6.7,1.1v0 C89.2,274.2,87,273.8,84.8,273.5z M92.4,274.1l-0.1-0.2l0.1,0l0,0.3C92.5,274.1,92.4,274.1,92.4,274.1z M84.9,272.6L84.9,272.6 c4.2,0.5,6.9,1.1,7.1,1.2C89.7,273.3,87.3,272.9,84.9,272.6z M91.9,275.4c0.1,0.3,0.2,0.6,0.3,1c-0.6,3.4-2.8,10-10.3,13.1l0.1-0.6 C89.8,285.5,91.5,278.2,91.9,275.4z M84.9,272.6c2.4,0.3,4.7,0.7,7.1,1.2c0,0,0,0,0,0l0.2,0.1l0.1,0.2c0,0,0,0.1,0,0.1v0.1 c0,0,0,0.4-0.1,1.1c-0.1-0.4-0.3-0.7-0.4-1.1l0,0c0,0-2.7-0.7-7.1-1.3L84.9,272.6z M91.9,275.4c0.1-0.7,0.1-1.1,0.1-1.2 c0.1,0.4,0.3,0.7,0.4,1.1c0,0.3-0.1,0.6-0.2,1C92.1,276,92,275.7,91.9,275.4z M91.4,274.6c0.1,0,0.1,0,0.2,0 c0.1,0.2,0.2,0.5,0.3,0.7c-0.4,2.8-2.1,10.1-9.8,13.5l0.1-0.6C90.2,284.7,91.3,276.6,91.4,274.6z M84.9,273L84.9,273 c4.4,0.5,7.1,1.2,7.1,1.2l0,0l0,0C89.6,273.8,87.2,273.4,84.9,273z M92,274.2L92,274.2c0,0,0,0.4-0.1,1.2c-0.1-0.2-0.2-0.5-0.3-0.7 c-0.1,0-0.1,0-0.2,0v0c-0.9-0.2-3.3-0.7-6.7-1.1l0.1-0.4C87.2,273.4,89.6,273.8,92,274.2z M136.6,268.8h4l-0.6,5.6h-3.6l-25.9-2.5 c0-1.6,0-2.6,0-4l25.8,2.5L136.6,268.8z M109.6,267.7v4l-13.2-1.3l0.7-6.9l4,0.4l-0.3,2.9L109.6,267.7z M110.6,267.8 c0,1.4,0,2.4,0,4l-0.5,0v-4L110.6,267.8z M110.1,267.8v4l-0.5,0v-4L110.1,267.8z M136.6,267.8l0-0.4l3.8,0.4H136.6z M136.6,268.8 l0.1-0.5h4l-0.1,0.5H136.6z M140.4,267.8l0.2,0l-0.1,0.5h-4l0.1-0.5H140.4z M136.5,274.4h3.6l0,0.4L136.5,274.4z" fill="#ffbc11"/></g><g id="change4_1"><path d="M257.2,130.2l7.1-20.5l13.2,5l41.9-38.2L327,65l3.2-14.9c0.4-1.3,1.4-1.3,1.9-1.2c1,0.2,1.9,1,1.9,2.3 c0,0.3-0.2,4.8-0.4,7.8c-0.1,2.6-0.2,3.3-0.2,3.4l0,0.9l28.2-15.9c0.6-0.1,2.1-0.3,2.8,0.4c0.5,0.6,0.4,1.7,0.1,2.6l-14,8.8 l-10.4,5.5l-0.1,0.1c0,0.1-0.6,1.2-0.1,2.3c0.3,0.6,0.8,1.1,1.5,1.4c-0.1,0.5-0.2,1.4,0.1,2.3c0.3,0.6,0.8,1,1.4,1.3 c-0.3,0.6-0.6,1.8-0.2,2.8c0.3,0.7,0.9,1.2,1.7,1.5l0.1,0l4.2-0.6l-2.1,1.4c-3.4,1.3-10.5,3.8-14.1,4.8l-0.1,0.1 c-1.3,0.8-23.2,24.1-43.5,45.9l-5.4,5.8c-2.4,2.6-6.1,3.5-9.5,2.4L257.2,130.2z M343.7,74.5c0.1,0.4,0.5,0.7,1,0.8l6-0.8l2.1-1.4 c0.8-1.1,0.1-2.3-0.3-2.7l-8.6,1.9C343.7,72.8,343.4,73.8,343.7,74.5z M340.8,66.7c0.2,0.4,0.6,0.7,1.2,1l9.2-3.4 c0.4-2.3-1.3-3.2-1.7-3.5l-8.6,4.6C340.8,65.6,340.6,66.2,340.8,66.7z M342.4,68.6c-0.1,0.3-0.3,1.1,0,1.8c0.2,0.4,0.6,0.8,1.2,1 l8.7-2c1.2-1.6-0.3-3.5-0.9-4.2l-2,0.7L342.4,68.6z M157.8,402.2v14.6c1.4,0.8,2.9,1.2,4.5,1.2h1.7l2.2-6.1v-3.8L157.8,402.2z M152.7,408.4c0,2.6,1.1,5.2,3.1,6.9l0.3,0.2c0.2,0.2,0.5,0.4,0.7,0.6v-14.6l-2-1.4l-2.1,4.6c0,0,0,0.1,0,0.1L152.7,408.4 L152.7,408.4z M157.3,416.5c0.2,0.1,0.3,0.2,0.5,0.3v-14.6l-0.5-0.4V416.5z M156.8,416.2c0.2,0.1,0.3,0.2,0.5,0.3v-14.6l-0.5-0.4 V416.2z M167.1,408.7v0.2V408.7L167.1,408.7z M166.1,408v3.8l0.5-1.4v-2L166.1,408z M166.6,408.4v2l0.5-1.4v-0.2L166.6,408.4z M295.6,431.9c1.8-1.5,2.8-3.8,2.9-6.1l0.1-2l-1.3-2.7l-16,6.5l2.8,6.6l6.3-0.2C292.3,433.9,294.2,433.2,295.6,431.9z M239.3,45.6 c-0.1,0-0.2,0-0.3-0.1L235,57.2l-0.2,8.5l4,0.1c1,0,1.9-0.7,2.1-1.7l0.8-4l-3.9-3.2c-0.1-0.1-0.2-0.3-0.2-0.5 c0.1-0.2,0.2-0.3,0.4-0.4l3.7-0.8l-0.3-1.7c0-0.1,0-0.3,0.1-0.4c0.1-0.1,0.2-0.2,0.4-0.2l4.3-0.2l-5.6-11.6l-0.8,2.4 C240.8,43.9,240.6,45.6,239.3,45.6z M223.1,57.8l-1.6,1.9l-0.1,16.8l4.1,2.8l3.7-13.4c0.1-0.2,0.3-0.3,0.5-0.4l5,0.1l0.2-8.5 l4.1-11.6c-1.2-0.3-1.1-2.2,0.3-2.2c0.2,0,0.3,0,0.5,0.1l0.8-2.4l-2.1-4.3l-10,12.1c-0.1,0.1-0.3,0.2-0.5,0.2 c-0.2,0-0.3-0.2-0.4-0.3c-0.5-1.3-1.7-2.2-3.3-2.4c-1-0.1-2,0.1-2.9,0.5l0,8.6c0.6,0.7,1.1,1.3,1.5,1.8 C223.2,57.3,223.3,57.6,223.1,57.8z M221.5,59.7l-8.9,10.8l8.8,6L221.5,59.7z M219.8,48.3c-1.4,2.2,0.2,5,1.8,7.1l0-8.6 C220.8,47.2,220.2,47.7,219.8,48.3z M138.7,161.4h21.8l2.6-5.6h-22.3L138.7,161.4z M149,139.9c-2.4,2-4.2,4.7-5.3,7.6l-0.6,1.7h27.7 l18.7-13.7l-13.2-19L149,139.9z M122,231.2c-4-0.4-7.8,0.6-10.9,2.5l-0.5,4.5c0.3,0.4,1.4,1.8,3.7,1l0.6-5.6c0-0.3,0.3-0.5,0.6-0.4 c0.3,0,0.5,0.3,0.4,0.6l-0.6,5.8c0.1,0.3,0.5,1.7,1.7,2.2c0.8,0.4,1.8,0.2,2.9-0.4l0.6-5.9c0-0.3,0.3-0.5,0.6-0.4 c0.3,0,0.5,0.3,0.4,0.6l-0.6,6c0.3,0.3,1.2,1.2,2.3,1.4c0.8,0.1,1.6-0.2,2.3-0.8l0.3-6.1c0-0.3,0.2-0.5,0.5-0.5 c0.3,0,0.5,0.2,0.5,0.5l-0.3,6.1c0.7,0.4,2.6,1.3,4-0.5l0.8-7.1c-2.6-1.9-5.6-3.1-8.9-3.4L122,231.2z M122.3,206.8h3.4l1.8-5.4 l1.8,5.4h5.7l-4.6,3.4l1.8,5.4l-4.6-3.4l-4.6,3.4l1.8-5.4l-2.8-2l-0.6,1.5l-9.2,15.1l-0.4,4.2c3.4-1.5,7.1-2.1,10.8-1.7l0.4,0 c4.2,0.4,8,2,11.2,4.5c0.2-0.1,0.4-0.3,0.5-0.6l0.9-4.9l0.9-12.1l3-6.5l-1.2-0.9h1.6l6.6-14.3h-18.8L122.3,206.8z M134.3,173.6H149 v6.6h-17.1l-2,5.6h19.4l8.1-17.8h-21.1L134.3,173.6z M124.7,212.9l2.7-2l2.7,2l-1-3.2l2.7-2h-3.4l-1-3.2l-1,3.2H123l2.7,2 L124.7,212.9z M122.8,215.6l4.6-3.4l4.6,3.4l-1.8-5.4l4.6-3.4h-5.7l-1.8-5.4l-1.8,5.4h-3.4l-0.2,0.5h3.9l1.4-4.3l1.4,4.3h4.5 l-3.7,2.7l1.4,4.3l-3.7-2.7l-3.7,2.7l1.4-4.3l-3.2-2.3l-0.2,0.5l2.8,2L122.8,215.6z M125.1,209.9l-3.2-2.3l0.1-0.4h3.9l1.4-4.3 l1.4,4.3h4.5l-3.7,2.7l1.4,4.3l-3.7-2.7l-3.7,2.7L125.1,209.9z M125.7,209.8l-1,3.2l2.7-2l2.7,2l-1-3.2l2.7-2h-3.4l-1-3.2l-1,3.2 H123L125.7,209.8z M139.3,207.6l0.4-0.9h-1.6L139.3,207.6z M141.1,154.9h22.4l0.2-0.4l5.8-4.2h-26.7L141.1,154.9z M140.7,155.9H163 l0.2-0.5h-22.4L140.7,155.9z M142.9,149.8h27.2l0.7-0.5h-27.7L142.9,149.8z M142.8,150.3h26.7l0.7-0.5H143L142.8,150.3z M140.9,155.4h22.4l0.2-0.5h-22.4L140.9,155.4z M136.7,167.1h21.2l2.1-4.6h-21.7L136.7,167.1z M138.5,161.9h21.7l0.2-0.5h-21.8 L138.5,161.9z M136.3,168.1h21.1l0.2-0.5h-21.2L136.3,168.1z M138.3,162.4H160l0.2-0.5h-21.7L138.3,162.4z M136.5,167.6h21.2 l0.2-0.5h-21.2L136.5,167.6z M147.9,174.6h-14l-1.7,4.6H148L147.9,174.6L147.9,174.6z M148.9,173.6h-14.7l-0.2,0.5h14.4v5.6h-16.4 l-0.2,0.5H149L148.9,173.6L148.9,173.6z M148.4,174.1h-14.3l-0.2,0.5h14v4.6h-15.7l-0.2,0.5h16.4L148.4,174.1L148.4,174.1z M127.8,191.5h18.9l2.1-4.6h-19.3L127.8,191.5z M129.7,186.3h19.4l0.2-0.5h-19.4L129.7,186.3z M127.4,192.5h18.8l0.2-0.5h-18.9 L127.4,192.5z M127.6,192h18.9l0.2-0.5h-18.9L127.6,192z M129.5,186.8h19.3l0.2-0.5h-19.4L129.5,186.8z M122.4,227.2 c-3.8-0.4-7.5,0.2-10.8,1.7l-0.5,4.8c3.2-1.9,7-2.9,10.9-2.5l0.4,0c3.3,0.3,6.3,1.5,8.9,3.4l0.2-2.2c0-0.4,0.2-0.5,0.4-0.6 c0.3-0.2,0.7,0,0.8,0c0.4,0.2,0.8,0.2,1.1,0c0.1,0,0.1-0.1,0.2-0.1c-3.2-2.5-7.1-4.1-11.2-4.5L122.4,227.2z" fill="#f4b078"/></g><g id="change5_1"><path d="M191.5,114.3l0,0.6l0.5,0.4l0-0.6L191.5,114.3z M190.4,135l0.2,0.3l0-0.5L190.4,135z M191,113.9l0,0.6l0.5,0.4 l0-0.6L191,113.9z M192,114.7l0,0.6l12,9.8l-13.3,9.7l0,0.5l0,0.1l14.1-10.3L192,114.7z M191,113.9l-6.3-5.2l-7.9,6.8l0.3,0.4 l7.6-6.5l6.3,5.1l0.5,0.4l0-0.6L191,113.9z M191.6,113.7l0,0.6l0.5,0.4l0-0.6L191.6,113.7z M191.1,113.3l0,0.6l0.5,0.4l0-0.6 L191.1,113.3z M192,114.1l0,0.6l12.8,10.4l-14.1,10.3l0.3,0.4l14.6-10.7L192,114.1z M184.7,108.1l-8.2,7l0.3,0.4l7.9-6.8l6.3,5.2 l0-0.6L184.7,108.1z M191.9,115.3l0-0.6l-0.5-0.4l0,0.6l-1.3,19.8l0.2,0.3l0.3-0.2l13.3-9.7L191.9,115.3z M191,114.5l-1.3,19.5 l0.5,0.6l1.3-19.8L191,114.5z M191.9,115.3l-1.3,19.5l13.3-9.7L191.9,115.3z M184.7,109.4l-7.6,6.5l12.6,18.1l1.3-19.5L184.7,109.4z M192.5,100l-0.9,13.7l0,0.6l0.5,0.4l0-0.6l1-14.4L192.5,100z M192,100.3l-0.9,13l0,0.6l0.5,0.4l0-0.6l0.9-13.7L192,100.3z M199.6,95.3l-1.2,0.8l1.7,0.1L199.6,95.3z M200,96.2l-1.7-0.1l-5.3,3.5l-1,14.4l13.6,11.1l-14.6,10.7l1.6,2.4l18.5-13.8l0-5.6 L200,96.2z M211.1,118.8l0,5.6l1.9-1.4c0,0,0.1,0,0.1,0L211.1,118.8z M174.3,111.9l2.2,3.2l8.2-7l6.4,5.2l0.9-13L174.3,111.9z M211.3,71.3l-4.9,5.9l4.8,2.9v-0.6l-4.1-2.4l4.1-5L211.3,71.3z M212,71.3l-0.4-0.2l-0.1,0l-0.3,0.3l-4.9,5.9l4.8,2.9v-0.6l-4.1-2.4 l4.1-5L212,71.3z M211.3,79.5v0.6l10.1,6.1v-0.6L211.3,79.5z M225.3,80.3l-1.8,6.5l-2-1.2l-10.1-6.1v0.6l10.1,6.1l2.3,1.4l1.9-7 L225.3,80.3z M211.3,70.8l-0.1-0.1l-5.1,6.2c-0.1,0.1-0.1,0.3-0.1,0.4c0,0.1,0.1,0.3,0.2,0.3l5.1,3.1v-0.6l-4.8-2.9l4.9-5.9 L211.3,70.8L211.3,70.8z M211.3,70.8v0.6l0.3-0.3L211.3,70.8z M211.3,80.1v0.6l10.1,6.1l0-0.6L211.3,80.1z M225.7,80.6l-1.9,7 l-2.3-1.4l-10.1-6.1v0.6l10.1,6.1l2.1,1.2c0.1,0.1,0.2,0.1,0.3,0.1c0.1,0,0.1,0,0.2,0c0.1-0.1,0.2-0.2,0.3-0.3l1.9-6.8L225.7,80.6z M207.2,77.1l4.1,2.4l0-7.4L207.2,77.1z M212,71.3l-0.7,0.8l-4.1,5l4.1,2.4l10.1,6.1l0-7.9L212,71.3z M221.5,77.7l0,7.9l2,1.2 l1.8-6.5L221.5,77.7z M229,91l-0.1-0.6l-4.5-2l2.4,7.4l0.4-0.3l-2-6.2L229,91z M229,90.5l-0.1-0.6l-4.2-1.9c-0.2-0.1-0.4,0-0.5,0.1 c-0.1,0.1-0.2,0.3-0.1,0.5l2.5,7.5l0.4-0.3l-2.4-7.4L229,90.5z M229.1,91.6c0-0.1,0-0.1-0.1-0.2l0-0.3l-3.7-1.6l2,6.2l2.9-1.8 L229.1,91.6z M206.2,77.6c-0.1-0.1-0.2-0.2-0.2-0.3c0-0.1,0-0.3,0.1-0.4l5.1-6.2l-1.9-1.5l-15.4,26.9l2.6,0.1l2.5-1.6 c0.2-0.2,0.5-0.1,0.7,0.1c0.1,0.2,0.1,0.5-0.1,0.7l-0.1,0l0.4,0.9l11.1,22.6l0.1-22.3l0.1-15.8L206.2,77.6z M211.3,80.7l-0.1,15.8 l10.2,0.3l0-10L211.3,80.7z M224.1,88.1c0.1-0.1,0.4-0.2,0.5-0.1l4.2,1.9l-0.8-7.7l-2-1.3l-1.9,6.8c0,0.2-0.1,0.3-0.3,0.3 c-0.1,0-0.1,0-0.2,0c-0.1,0-0.2,0-0.3-0.1l-2.1-1.2l-10.1-6.1l-0.1,15.8l10.2,0.3l3.9,0.1l1.2-0.8l-2.5-7.5 C223.9,88.5,224,88.2,224.1,88.1z M187.7,223.8l-0.1,7.1h23.1l0-7.1H187.7z M210.7,223.8l0,7.1h10.2l0-7.1H210.7z M250.5,223.8 h-29.7l0,7.1h31.5L250.5,223.8z M237.8,127.5l-10.5-31.9l-0.4,0.3l10.5,32l8.2,3.3c0.1-0.2,0.1-0.3,0.1-0.5L237.8,127.5z M237.4,127.9l-10.5-32l-0.4,0.3l10.5,31.9c0,0.1,0.1,0.2,0.3,0.3l8.2,3.3c0.1-0.2,0.1-0.3,0.2-0.5L237.4,127.9z M245,123.7 l-14.8-29.9l-2.9,1.8l10.5,31.9l7.9,3.2C246.3,128.4,246.1,125.9,245,123.7z M192.8,139.3c-0.1,0.1-0.2,0.1-0.3,0.1c0,0-0.1,0-0.1,0 c-0.1,0-0.2-0.1-0.3-0.2l-1.6-2.2l-2.7,40.6l-6.1,53.4h6l0.1-7.1h23l0.4-98.3L192.8,139.3z M193.9,96.1l-0.8,1.4l-0.1,1l3.5-2.3 L193.9,96.1z M200,96.2l11.1,22.6l0.1-22.3L200,96.2z M211.2,96.5l-0.1,22.3l2,4.1c0.2-0.1,0.5-0.1,0.6,0.1c0.2,0.2,0.1,0.5-0.1,0.7 l-2.6,1.9l-0.4,98.3h10.2l0.5-127.1L211.2,96.5z M240.4,146.2c-0.2-1.2-0.1-2.4,0.4-3.6l4.4-10.4c0.1-0.2,0.2-0.4,0.2-0.7l-8.2-3.3 c-0.1-0.1-0.2-0.2-0.3-0.3l-10.5-31.9l-1.2,0.8l-3.9-0.1l-0.5,127.1h29.7l1.8,7.1h2.5L240.4,146.2z M258.7,107.1l-4.9,22.5l2.3,0.8 l0.2-0.5l-1.9-0.6l4.7-21.5l4.2,1.6l0.2-0.5L258.7,107.1z M258.4,106.4l-5.1,23.5l2.7,0.9l0.2-0.5l-2.3-0.8l4.9-22.5l4.8,1.8 l0.2-0.5L258.4,106.4z M259.1,107.7l-4.7,21.5l1.9,0.6l7.1-20.6L259.1,107.7z M232.4,92.5C232.3,92.5,232.3,92.5,232.4,92.5 l-1.3,0.8l14.8,30c1.2,2.4,1.5,5.2,0.8,7.8l8.1,3.2l1.2-3.4l-2.7-0.9l5.1-23.5l5.3,2l0.6-1.9L232.4,92.5z M49.3,338.6 c-9.5-1.5-18.4,4.9-20,14.4c-1.5,9.5,4.9,18.4,14.4,20c9.5,1.5,18.4-4.9,20-14.4C65.2,349,58.8,340.1,49.3,338.6z M52.4,364.3 c0.7,0.5,0.8,1.4,0.3,2.1c-0.3,0.4-0.8,0.6-1.2,0.6c-0.3,0-0.6-0.1-0.9-0.3L37.1,357c-0.4-0.3-0.6-0.7-0.6-1.2 c0-0.5,0.2-0.9,0.6-1.2l13.8-9.8c0.7-0.5,1.6-0.3,2.1,0.4c0.5,0.7,0.3,1.6-0.3,2.1l-12,8.5L52.4,364.3z M171.5,339.7 c-8.9,3.7-13.1,13.9-9.4,22.7c0.1,0.4,0.3,0.7,0.5,1.1l14.1-25C175,338.6,173.2,339,171.5,339.7z M52.1,274.6 c6.3-1.3,12.8-1.9,19.3-1.9c4.1,0,8.2,0.2,12.3,0.8l0-0.1C76.3,272.5,64.5,271.9,52.1,274.6z M71.4,272.7c-6.5,0-13,0.6-19.3,1.9 c0.6,2.7,4.3,15.5,20.7,15.5c0.1,0,0.1,0,0.2,0c3.2,0,5.9-0.5,8.1-1.3l2.8-15.3C79.7,272.9,75.5,272.7,71.4,272.7z M72.9,291.1 c-0.1,0-0.1,0-0.2,0c-15.2,0-20-10.8-21.3-15.1c-2.6,8.2-3.5,17.4-2.6,27.3c3.6,3.3,17.2,4.6,28.8,3.9l3.1-17.3 C78.6,290.6,76,291.1,72.9,291.1z M80.4,78.8l-7.6,0l-9.5,0c-5.9,9.6-8.6,21.2-10.6,32.4c4.8,3.6,33.8,3.7,38.2,0.2 C88.8,100.1,85.9,87.5,80.4,78.8z M77.5,59.5c-0.3-0.8-0.5-1.6-0.6-2.5c-0.1,0.7-0.2,1.3-0.3,1.8c-0.7,2.5-2.6,4.2-4.7,4.4 c-2.2-0.1-4.1-1.9-4.8-4.4c-0.1-0.2-0.2-1-0.3-1.8c-0.1,0.9-0.3,1.7-0.6,2.5c-0.8,2.3-2.1,4.4-4,6.3l1.3,12l16.7,0.1l1.3-12 C79.6,63.9,78.3,61.8,77.5,59.5z M53,190.1c2,0.2,4.4,1.5,7.1,3.7c-0.6,0-1.2,0.1-1.7,0.4c-3.2,1.7-4,8.8-4.5,16.4h-0.9L49.4,191 C50.5,190.2,51.7,189.9,53,190.1z M61.5,193.7c-3.3-2.8-6-4.4-8.4-4.6c-0.9-0.1-1.8,0-2.6,0.2c0.8-0.4,1.9-0.7,3.3-0.7 c2,0,3.9,0.6,5.3,1.5C60.1,190.8,61.2,191.9,61.5,193.7z M101,209.8l-25.5-0.1c-4.9-6.6-9.2-11.6-12.9-15.1c-0.1-2.2-1.1-4.1-3-5.4 c-1.6-1.1-3.7-1.7-5.9-1.7c-2.1,0-3.7,0.6-4.7,1.5c-1.1-8.6,2.2-13.3,11.9-17.1c6.7,8.8,22.2,25.8,22.4,26l0.1,0.1l0.1,0 C83.8,198.2,99.9,202.8,101,209.8z" fill="#ff3d00"/></g><g id="change1_2"><path d="M216.5,336l3.9-12.5l-0.4,95c-0.1,18.4-15.1,33.3-33.5,33.2L33.2,451C14.8,450.9-0.1,435.9,0,417.5L1.6,33.2 C1.7,14.8,16.7-0.1,35.2,0l153.3,0.7c15.4,0.1,28.3,10.6,32.1,24.8l-2.6-0.2c-1.6-0.1-3.2,0.4-4.5,1.4l-1.8,1.5l-2-0.2 c-0.1,0-0.2,0-0.3,0c-3.6-8.2-11.8-13.9-21.3-14l-29.7-0.1c-4,0-7.2,3.3-7.2,7.5l0,5.4c0,4.2-3.3,7.5-7.2,7.5L86,34 c-4,0-7.2-3.4-7.2-7.6l0-5.4c0-4.2-3.2-7.6-7.2-7.6l-10.5-0.1l-26-0.1c-12.9-0.1-23.4,10.4-23.5,23.3l-1.6,375 C10.1,424.5,20.5,435,33.4,435l118.1,0.5l9.4,13.6c0.8,1.2,2.2,1.9,3.7,1.9c0,0,0.1,0,0.1,0l23-0.6c0.1,0,0.3-0.1,0.4-0.2 c0.1-0.1,0.1-0.3,0.1-0.4l-0.6-2.9c-0.9-4.4-4.8-7.5-9.2-7.5h-6.2c-2.1,0-3.9-1.5-4.2-3.5l-0.1-0.3l18.5,0.1 c12.9,0.1,23.4-10.4,23.5-23.3l0.3-66.9L216.5,336z M119.9,206.8l1,0.8l0.3-0.8H119.9z M144.2,207.3l1.4-4.3l1.4,4.3h4.5l-3.7,2.7 l1.4,4.3l-3.7-2.7l-3.7,2.7l1.4-4.3l-3-2.2l-0.2,0.5l2.6,1.9l-1.8,5.4l4.6-3.4l4.6,3.4l-1.8-5.4l4.6-3.4h-5.7l-1.8-5.4l-1.8,5.4 h-3.1l-0.2,0.5L144.2,207.3L144.2,207.3z M140.4,207.8l0.2-0.5h3.6l1.4-4.3l1.4,4.3h4.5l-3.7,2.7l1.4,4.3l-3.7-2.7l-3.7,2.7l1.4-4.3 L140.4,207.8z M141.2,207.8l2.7,2l-1,3.2l2.7-2l2.7,2l-1-3.2l2.7-2h-3.4l-1-3.2l-1,3.2H141.2z M170.1,206.8l-4.6,3.4l1.8,5.4 l-4.6-3.4l-4.6,3.4l1.8-5.4l-4.6-3.4h5.7l1.8-5.4l1.8,5.4H170.1z M164.9,209.9l3.7-2.7H164l-1.4-4.3l-1.4,4.3h-4.5l3.7,2.7l-1.4,4.3 l3.7-2.7l3.7,2.7L164.9,209.9z M168.5,207.3l-3.7,2.7l1.4,4.3l-3.7-2.7l-3.7,2.7l1.4-4.3l-3.7-2.7h4.5l1.4-4.3l1.4,4.3H168.5z M164.3,209.8l2.7-2h-3.4l-1-3.2l-1,3.2h-3.4l2.7,2l-1,3.2l2.7-2l2.7,2L164.3,209.8z M182.3,149.8v5.6h-17.9l-0.2,0.5h18.7v-6.6 h-10.2l-0.7,0.5L182.3,149.8L182.3,149.8z M121.4,155.4v-5.6h20.4l0.2-0.5h-21.1v6.6h18.7l0.2-0.5L121.4,155.4L121.4,155.4z M181.8,150.3v4.6h-16.9l-0.4,0.3l-0.1,0.2h17.9v-5.6h-10.4l-0.7,0.5L181.8,150.3L181.8,150.3z M121.9,154.9v-4.6h19.8l0.2-0.5 h-20.4v5.6h18.4l0.2-0.5L121.9,154.9L121.9,154.9z M182.3,161.9v5.6h-23.5l-0.2,0.5h24.2v-6.6h-21.2l-0.2,0.5L182.3,161.9 L182.3,161.9z M121.4,167.6V162h16l0.2-0.5h-16.7v6.6h14.3l0.2-0.5L121.4,167.6L121.4,167.6z M181.8,162.4v4.6H159l-0.2,0.5h23.5 V162h-20.9l-0.2,0.5L181.8,162.4L181.8,162.4z M121.9,167.1v-4.6h15.3l0.2-0.5h-16v5.6h14l0.2-0.5L121.9,167.1L121.9,167.1z M121.4,179.8v-5.6H133l0.2-0.5h-12.3v6.6h9.9l0.2-0.5H121.4z M121.9,179.3v-4.6h10.9l0.2-0.5h-11.6v5.6h9.6l0.2-0.5H121.9z M162.7,186.3v5.6h-15.1l-0.2,0.5h15.8v-6.6h-12.8l-0.2,0.5L162.7,186.3L162.7,186.3z M121.4,192v-5.6h7.2l0.2-0.5h-7.8v6.6h5.4 l0.2-0.5L121.4,192L121.4,192z M121.9,191.5v-4.6h6.5l0.2-0.5h-7.2v5.6h5.1l0.2-0.5L121.9,191.5L121.9,191.5z M162.2,186.8v4.6 h-14.3l-0.2,0.5h15.1v-5.6h-12.5l-0.2,0.5L162.2,186.8L162.2,186.8z M110.1,263.8l0.5,0c0-4.3,0-14.3,0-14.3l-8.2,0l-0.1,0.5l7.7,0 V263.8z M34.5,327.1v-77.2l63.9,0.2l0.1-0.5l-63.9-0.2H34v78.2l40.1,0.1l0.1-0.5L34.5,327.1z M35,326.6v-76.2l63.3,0.2l0.1-0.5 l-63.9-0.2v77.2l39.7,0.1l0.1-0.5L35,326.6z M109.6,250.5v13.2l0.5,0V250l-7.7,0l-0.1,0.5L109.6,250.5z M151.6,308l-0.9,0.6l0,0.6 l2.4-1.8h-2.4l0,0.5L151.6,308L151.6,308z M151.6,308h-0.8l0,0.6L151.6,308z M159.7,310.9l-4.6-3.4h5.7l1.8-5.4l1.8,5.4h5.7 l-4.6,3.4l1.8,5.4l-4.6-3.4l-4.6,3.4L159.7,310.9z M160.3,310.7l-1.4,4.3l3.7-2.7l3.7,2.7l-1.4-4.3l3.7-2.7H164l-1.4-4.3l-1.4,4.3 h-4.5L160.3,310.7z M160.3,310.7l-3.7-2.7h4.5l1.4-4.3l1.4,4.3h4.5l-3.7,2.7l1.4,4.3l-3.7-2.7l-3.7,2.7L160.3,310.7z M160.9,310.5 l-1,3.2l2.7-2l2.7,2l-1-3.2l2.7-2h-3.4l-1-3.2l-1,3.2h-3.4L160.9,310.5z M120.9,256.6h16.8l0.1-0.5h-16.3v-5.6h16.9 c0-0.2,0-0.3,0-0.5H121L120.9,256.6L120.9,256.6z M182.3,250.5v5.6h-40.5l-0.1,0.5h41V250h-40.4c0,0.2,0,0.3,0,0.5H182.3z M121.4,256.1h16.4l0.1-0.5H122V251h16.3l0-0.4c0,0,0-0.1,0-0.1h-16.9L121.4,256.1L121.4,256.1z M142.3,251h39.5v4.6h-39.9l-0.1,0.5 h40.5v-5.6h-39.9C142.3,250.7,142.3,250.8,142.3,251L142.3,251z M120.9,264.9l0.5,0v-2.2h15.7l0.1-0.5H121L120.9,264.9L120.9,264.9z M166.5,262.7v5.6h-13.8l0,0.5H167v-6.6h-25.7l-0.1,0.5H166.5z M121.4,264.9l0.5,0v-1.8h15.2l0.1-0.5h-15.7 C121.4,262.7,121.4,264.9,121.4,264.9z M166,263.2v4.6h-15.3l1.9,0.2l0,0.3h13.8v-5.6h-25.3l-0.1,0.5H166z M178.8,274.9v5.6H152 l0,0.5h27.2v-6.6h-26.9l0,0.5L178.8,274.9L178.8,274.9z M178.3,275.4v4.6h-26.2l0,0.5h26.7v-5.6h-26.4l0,0.5L178.3,275.4 L178.3,275.4z M162.7,287.1v5.6h-11.2l0,0.5h11.7v-6.6h-11.4l0,0.5H162.7z M162.2,287.6v4.6h-10.7l0,0.5h11.2v-5.6h-10.9l0,0.5 H162.2z M51.5,273.7C51.5,273.7,51.4,273.7,51.5,273.7l-0.4,0.1v0L51.5,273.7C51.5,273.7,51.5,273.7,51.5,273.7z M48.4,303.5 c-1-10.6,0-20,2.8-28.4c-0.1-0.5-0.2-0.8-0.2-0.9l0-0.1c-3.1,8.8-4.1,18.7-3.1,29.4l0,0.2l0.1,0.1c3,3,13.1,4.5,23.4,4.5 c2,0,4.1-0.1,6.1-0.2l0.1-0.6C65.7,308.4,51.8,307,48.4,303.5z M48.9,303.3c-0.9-9.9,0-19.1,2.6-27.3c-0.1-0.3-0.2-0.6-0.2-0.9 c-2.8,8.4-3.8,17.8-2.8,28.4c3.4,3.5,17.3,4.8,29.2,4.1l0.1-0.5C66.1,307.9,52.4,306.6,48.9,303.3z M51.1,273.8l-0.2,0l0.1,0.4 c0,0,0-0.1,0-0.1L51.1,273.8z M84,272.4L84,272.4c-7.6-1-19.7-1.6-32.4,1.3C62.1,271.5,73,271.1,84,272.4z M72.8,291.1 c0.1,0,0.1,0,0.2,0c3.1,0,5.7-0.5,7.9-1.2l0.1-0.6c-2.2,0.8-4.8,1.3-8,1.3c-16,0.1-20.3-11.9-21.2-15.4c-0.1,0.3-0.2,0.6-0.3,0.9 C52.8,280.3,57.6,291.1,72.8,291.1z M51.2,275.1c0.1-0.3,0.2-0.6,0.3-0.9h0c12.8-2.9,24.8-2.3,32.3-1.3l0.1-0.4 c-11-1.4-21.8-0.9-32.4,1.3c0,0-0.1,0-0.1,0l-0.3,0.1l-0.1,0.3c0,0,0,0.1,0,0.1l0,0.1C51,274.3,51.1,274.6,51.2,275.1z M51.7,275.1 c-0.2-0.6-0.2-1-0.2-1h0h0c-0.1,0.3-0.2,0.6-0.3,0.9c0.1,0.2,0.1,0.5,0.2,0.9C51.6,275.7,51.6,275.4,51.7,275.1z M72.9,290.6 c3.2,0,5.8-0.5,8-1.3l0.1-0.5c-2.2,0.8-4.9,1.3-8.1,1.3c-0.1,0-0.1,0-0.2,0c-16.4,0-20.1-12.8-20.7-15.5c-0.1,0-0.1,0-0.2,0 c-0.1,0.2-0.1,0.4-0.2,0.5C52.6,278.6,56.9,290.7,72.9,290.6z M83.9,272.9L83.9,272.9c-7.6-1-19.6-1.6-32.3,1.3 C62.3,272,73.1,271.6,83.9,272.9z M51.7,275.1c0.1-0.2,0.1-0.4,0.2-0.5c0.1,0,0.1,0,0.2,0v0c12.4-2.7,24.2-2.1,31.7-1.2l0.1-0.4 c-10.8-1.3-21.5-1-32.3,1.3h0C51.5,274.2,51.6,274.6,51.7,275.1z M122.5,420.1v-34.8h27.8l0.3-0.5H122v35.8h19.1l-0.4-0.5H122.5z M123,419.6v-33.8h27l0.3-0.5h-27.8v34.8h18.3l-0.4-0.5H123z M201.4,385.4v34.8h-34.8v-6.8l-0.5,1.4v5.8h35.8v-35.8h-17.4l-0.3,0.5 L201.4,385.4L201.4,385.4z M200.9,385.9v33.8h-33.8V412l-0.5,1.4v6.8h34.8v-34.8h-17.2l-0.3,0.5L200.9,385.9L200.9,385.9z M351.6,64.6c0,0,3.1,2.8,1,5.2c0,0,2,1.8,0.5,3.7l-2.3,1.5l0.1,0.5l-1,0.1l-3,2c-3.4,1.3-10.6,3.9-14.2,4.8 c-1.6,1-36.4,38.3-48.8,51.6c-2.5,2.7-6.5,3.7-10,2.5l-16.9-5.8l-0.2,0.5l16.9,5.8c1.1,0.4,2.2,0.5,3.2,0.5c2.7,0,5.4-1.1,7.3-3.2 l5.4-5.8c13.5-14.4,41.3-44.2,43.3-45.7c3.6-1,10.8-3.5,14.1-4.8l6.4-4.2l0.1-0.1c1.2-1.5,0.5-3.2-0.2-4.1c1.3-2,0-4.2-1.1-5.3 c0.4-2.1-0.6-3.5-1.6-4.2l0.4-0.2l-0.9,0.5C350.8,61,352.3,62.2,351.6,64.6z M365.1,47c-1.2-1.3-3.7-0.7-3.8-0.7l-26.9,15.1 c0-0.6,0.1-1.5,0.1-2.4c0.4-7.5,0.4-7.8,0.4-7.8c0.1-1.7-1.3-3-2.7-3.3c-1.4-0.3-2.6,0.5-3,1.9l-3.1,14.7l-7.5,11.3l-41.3,37.7 l-12.6-4.8l-0.2,0.5l12.9,4.9l41.6-38v0l7.6-11.4l3.2-14.8c0.9-2.9,4.9-1.4,4.7,1.2c0,0.2-0.6,11-0.6,11.2l27.5-15.5 c0,0,5.1-1.3,3.5,3.8l-14.2,8.9l0.2,0.4l14.4-9l0.1-0.2C365.9,49.1,365.8,47.8,365.1,47z M346.7,77.2c-3.4,1.3-10.5,3.8-14.1,4.8 l-0.1,0.1c-1.3,0.8-23.2,24.1-43.5,45.9l-5.4,5.8c-2.4,2.6-6.1,3.5-9.5,2.4l-16.9-5.8l-0.2,0.5l16.9,5.8c3.5,1.2,7.5,0.2,10-2.5 c12.4-13.3,47.2-50.7,48.8-51.6c3.5-0.9,10.7-3.5,14.2-4.8l3-2l-1.1,0.2L346.7,77.2z M277.5,114.8l41.9-38.2L327,65l3.2-14.9 c0.4-1.3,1.4-1.3,1.9-1.2c1,0.2,1.9,1,1.9,2.3c0,0.3-0.2,4.8-0.4,7.8c-0.1,2.6-0.2,3.3-0.2,3.4l0,0.9l28.2-15.9 c0.6-0.1,2.1-0.3,2.8,0.4c0.5,0.6,0.4,1.7,0.1,2.6l-14,8.8h0l0.2,0.4l14.2-8.9c1.6-5-3.5-3.8-3.5-3.8l-27.5,15.5 c0-0.2,0.6-11,0.6-11.2c0.2-2.6-3.9-4.1-4.7-1.2l-3.2,14.8L319,76.2v0l-41.6,38l-12.9-4.9l-0.2,0.5L277.5,114.8z M351.2,64.2 l0.3-0.1l0.4,0.9l0,0l0,0l-0.3,0.1c0.6,0.6,2.1,2.5,0.9,4.2l0.2,0l0.2,1l-0.1,0l0,0.1l-0.1,0c0.4,0.5,1.1,1.6,0.3,2.7l-2.1,1.4 l0.1,0l0.1,0.5l2.3-1.5c1.5-1.9-0.5-3.7-0.5-3.7c2-2.4-1-5.2-1-5.2c0.6-2.4-0.9-3.6-1.6-4.1l-0.5,0.3C350,61,351.6,62,351.2,64.2z M264.9,106.3l-0.8,2.3l0.5,0.2l0.8-2.3c0.1-0.2,0-0.5-0.3-0.6l-31.8-14c-0.1,0.1-0.3,0.2-0.4,0.3L264.9,106.3z M255.1,135l-8.5-3.4 c-0.1,0.2-0.1,0.3-0.2,0.5l8.5,3.4c0.1,0,0.1,0,0.2,0s0.1,0,0.2,0c0.1-0.1,0.2-0.2,0.3-0.3l1.4-3.9l-0.5-0.2L255.1,135z M257.2,130.2l7.1-20.5l-0.5-0.2l-7.1,20.5L257.2,130.2z M256.6,130.6l-0.2,0.5l0.5,0.2l0.2-0.5L256.6,130.6z M264,109.1l0.5,0.2 l0.2-0.5l-0.5-0.2L264,109.1z M263.8,109.5l0.5,0.2l0.2-0.5l-0.5-0.2L263.8,109.5z M256.7,130.1l-0.2,0.5l0.5,0.2l0.2-0.5 L256.7,130.1z M254.8,134.3l-8.1-3.2c0,0.2-0.1,0.3-0.1,0.5l8.5,3.4l1.4-3.9l-0.5-0.2L254.8,134.3z M264.3,106.5l-0.6,1.9l0.5,0.2 l0.8-2.3l-32.1-14.1c-0.2,0.1-0.3,0.2-0.5,0.3L264.3,106.5z M256.3,129.9l0.5,0.2l7.1-20.5l-0.5-0.2L256.3,129.9z M263.5,108.9 l0.5,0.2l0.2-0.5l-0.5-0.2L263.5,108.9z M255.9,130.9l0.5,0.2l0.2-0.5l-0.5-0.2L255.9,130.9z M256.3,129.9l-0.2,0.5l0.5,0.2l0.2-0.5 L256.3,129.9z M263.3,109.4l0.5,0.2l0.2-0.5l-0.5-0.2L263.3,109.4z M164.5,418c0.2,0.1,0.3,0.2,0.3,0.4l0,0.1l1.3-3.7v-1.5 L164.5,418z M152,404.3c0.1,0,0.2,0,0.2,0l2-4.5l-0.4-0.3l-2.2,4.9L152,404.3z M167.6,409.1l-0.5,1.4v1.5l0.9-2.6L167.6,409.1z M166.6,411.9l-0.5,1.4v1.5l0.5-1.4V411.9z M167.1,410.5l-0.5,1.4v1.5l0.5-1.4V410.5z M163.9,417.9h0.4c0.1,0,0.1,0,0.2,0l1.6-4.7 v-1.5L163.9,417.9z M152.6,404.7l2.1-4.6l-0.4-0.3l-2,4.5c0.1,0,0.1,0,0.2,0.1C152.6,404.5,152.6,404.6,152.6,404.7z M167.2,408.8 l-0.1,0.2v1.5l0.5-1.4L167.2,408.8z M166.1,411.8v1.5l0.5-1.4v-1.5L166.1,411.8z M167.1,409l-0.5,1.4v1.5l0.5-1.4V409z M298.8,423.3 c0,0,0.1,0,0.2,0l0.4,0l-1.2-2.4l-0.5,0.2L298.8,423.3z M283.4,434.5c0-0.1,0.1-0.1,0.2-0.1l-2.8-6.5l-0.5,0.2l2.9,6.9l0,0 C283.2,434.7,283.3,434.6,283.4,434.5z M298.5,423.8v-0.1c0-0.2,0.1-0.4,0.3-0.4l-1.1-2.3l-0.5,0.2L298.5,423.8z M283.7,434.3l0.3,0 l-2.8-6.6l-0.5,0.2l2.8,6.5C283.6,434.3,283.7,434.3,283.7,434.3z M220.5,299.4l4.4,11.3c0.1,0.3,0,0.5-0.3,0.6c0,0-0.1,0-0.1,0 l46.1,107.1c0,0,0.1,0,0.1-0.1l25.9-8.9l-44.2-177.6h-31.7L220.5,299.4z M224,311l-3.5-8.9l-0.1,21.3l3.8-12.1 C224.1,311.2,224.1,311.2,224,311z M271.1,419.4l4.5,10.5l4.7-1.9l-0.4-1c-0.1-0.2,0-0.5,0.2-0.6l16.3-7.9c0.1-0.1,0.3-0.1,0.4,0 c0.1,0,0.2,0.1,0.3,0.3l1,2.1l1.2-0.5l-2.4-9.7L271.1,419.4C271.1,419.4,271.1,419.4,271.1,419.4z M210.5,273.8l10.1,25.6l0.3-67.5 h-10.2L210.5,273.8z M210.5,276.5l-0.3,69.1l6.3-9.6l3.9-12.5l0.1-21.3L210.5,276.5z M203.7,256.4l-1.9-11c-0.1-0.3,0.1-0.5,0.4-0.6 c0.3-0.1,0.5,0.1,0.6,0.4l1.9,11c0.6,3.3,1.5,6.5,2.7,9.6l3.1,7.9l0.2-41.9h-23.1l-1,85.1c0,2.5-0.7,4.9-1.9,7.1l-8,14.3 c7.4-0.6,14.6,3.5,17.6,10.7c3.7,8.9-0.5,19-9.4,22.7c-8.5,3.5-18.2-0.2-22.2-8.4l-11.2,20c0.1,0,0.1,0,0.1,0.1l1.9,1.4h4.3v3.2 l8.3,6.1v-9.3h18.4l25.7-39.3l0.3-69.1l-4-10.2C205.2,263.1,204.3,259.8,203.7,256.4z M166.1,405.5v-10.1l-8.3-6.1v10.6L166.1,405.5 z M150.9,384.3C150.9,384.3,150.9,384.3,150.9,384.3l-0.4,0.6h1.1L150.9,384.3z M162.6,363.5l14.1-25c7.4-0.6,14.6,3.5,17.6,10.7 c3.7,8.9-0.5,19-9.4,22.7C176.3,375.3,166.6,371.6,162.6,363.5z M186.4,355.7c-3.5,2.6-6.6,5-8.9,6.7c-1.2,0.9-2.1,1.6-2.7,2.2 c-0.6,0.5-1,0.8-1,0.9c0,0,0.4-0.2,1.1-0.7c0.8-0.5,1.7-1.2,2.9-2c2.4-1.7,5.7-4.1,9.3-6.8c0-1,0-0.3,0-0.5h0l0,0l0,0l0,0l-0.1-0.1 l-0.2-0.1l-0.3-0.2l-0.7-0.5c-0.4-0.3-0.9-0.6-1.3-1c-0.9-0.6-1.7-1.2-2.5-1.8c-1.6-1.1-3-2.1-4.2-3c-1.1-0.8-2.1-1.5-2.9-2 c-0.7-0.5-1.1-0.7-1.1-0.7c0,0,0.3,0.3,1,0.9s1.6,1.3,2.7,2.2c1.2,0.9,2.6,2,4.1,3.1c0.8,0.6,1.6,1.2,2.4,1.9c0.4,0.3,0.9,0.6,1.3,1 l0.7,0.5L186.4,355.7L186.4,355.7z M174.8,364.6c-0.6,0.5-1,0.8-1,0.9c0,0,0.4-0.2,1.1-0.7c0.8-0.5,1.7-1.2,2.9-2 c2.4-1.7,5.7-4.1,9.3-6.8c0-1,0-0.3,0-0.5h0l0,0l0,0l0,0l-0.1-0.1l-0.2-0.1l-0.3-0.2l-0.7-0.5c-0.4-0.3-0.9-0.6-1.3-1 c-0.9-0.6-1.7-1.2-2.5-1.8c-1.6-1.1-3-2.1-4.2-3c-1.1-0.8-2.1-1.5-2.9-2c-0.7-0.5-1.1-0.7-1.1-0.7c0,0,0.3,0.3,1,0.9 s1.6,1.3,2.7,2.2c1.2,0.9,2.6,2,4.1,3.1c0.8,0.6,1.6,1.2,2.4,1.9c0.4,0.3,0.9,0.6,1.3,1l0.7,0.5l0.3,0.2l0,0 c0.1-0.1,0.2-0.2,0.3-0.2c0,1,0,0.3,0,0.5h0l0,0l0,0l0,0l-0.1-0.1l-0.1-0.1c-3.5,2.6-6.6,5-8.9,6.7 C176.3,363.4,175.4,364.1,174.8,364.6z M186.6,355.9L186.6,355.9L186.6,355.9L186.6,355.9L186.6,355.9c0.1-0.1,0.1,0.5,0.1-0.4 c-0.1,0.1-0.2,0.2-0.3,0.2L186.6,355.9L186.6,355.9z M156.8,385.9h-2l2,1.5V385.9z M145.6,393.8l8.3,5.8l0.5-1.2 c0.1-0.1,0.2-0.2,0.3-0.3c0.1,0,0.3,0,0.4,0.1l1.6,1.1v-10.7l-3.7-2.7h-3.1L145.6,393.8z M157.8,399.9v-10.6l-0.5-0.4v10.6 L157.8,399.9z M157.3,385.4v2.3l0.5,0.4v-3.2h-4.3l0.7,0.5H157.3z M152.4,385.4l-0.7-0.5h-1.1l-0.3,0.5H152.4z M156.8,385.9v1.5 l0.5,0.4v-2.3h-3.2l0.7,0.5L156.8,385.9L156.8,385.9L156.8,385.9z M153.1,385.9l-0.7-0.5h-2.1l-0.3,0.5H153.1z M157.3,399.6v-10.6 l-0.5-0.4v10.7L157.3,399.6z M168.4,407.1c0.2,0.1,0.3,0.4,0.2,0.6l-0.6,1.7l0.3,0.2l5.6-8.5l-6.8-5v10L168.4,407.1z M183.8,385.9 h-16.7v9l7.3,5.4L183.8,385.9z M166.6,385.4h17.6l0.3-0.5h-18.4v9.3l0.5,0.4V385.4z M166.6,405.8v-10.1l-0.5-0.4v10.1L166.6,405.8z M167.1,406.2v-10l-0.5-0.4v10.1L167.1,406.2z M167.1,385.9h16.7l0.3-0.5h-17.6v9.1l0.5,0.4V385.9z M157.8,401.1v1.1l8.3,5.8v-1.3 L157.8,401.1z M156.8,400.5l-1.7-1.1l-0.4,0.8l2,1.4V400.5z M157.3,400.8v1.1l0.5,0.4v-1.1L157.3,400.8z M156.8,401.5l0.5,0.4v-1.1 l-0.5-0.3V401.5z M167.1,407.4v1.4l0.1,0l0.4-1.1L167.1,407.4z M166.1,406.7v1.3l0.5,0.4V407L166.1,406.7z M166.6,407v1.4l0.5,0.4 v-1.4L166.6,407z M166.1,406.1v-0.6l-8.3-5.6v0.6L166.1,406.1z M154.9,398.6l1.9,1.3v-0.6l-1.6-1.1c-0.1-0.1-0.3-0.1-0.4-0.1 c-0.1,0-0.3,0.1-0.3,0.3l-0.5,1.2l0.4,0.3L154.9,398.6z M157.8,400.5v-0.6l-0.5-0.3v0.6L157.8,400.5z M157.3,400.2v-0.6l-0.5-0.3 v0.6L157.3,400.2z M168.2,407.5l-0.6,1.6l0.4,0.3l0.6-1.7c0.1-0.2,0-0.5-0.2-0.6l-1.3-0.9v0.6L168.2,407.5z M166.6,406.4v-0.6 l-0.5-0.3v0.6L166.6,406.4z M167.1,406.8v-0.6l-0.5-0.3v0.6L167.1,406.8z M166.1,406.7v-0.6l-8.3-5.6v0.6L166.1,406.7z M155.1,399.3 l1.7,1.1v-0.6l-1.9-1.3l-0.6,1.2l0.4,0.3L155.1,399.3z M157.8,401.1v-0.6l-0.5-0.3v0.6L157.8,401.1z M157.3,400.8v-0.6l-0.5-0.3v0.6 L157.3,400.8z M167.1,406.8v0.6l0.4,0.3l-0.4,1.1l0.4,0.3l0.6-1.6L167.1,406.8z M166.6,407v-0.6l-0.5-0.3v0.6L166.6,407z M167.1,407.4v-0.6l-0.5-0.3v0.6L167.1,407.4z M296.5,419.5L281,427l0.2,0.6l16-6.5L296.5,419.5z M296.9,418.4c-0.1,0-0.3,0-0.4,0 l-16.3,7.9c-0.2,0.1-0.4,0.4-0.2,0.6l0.4,1l0.5-0.2l-0.4-1l16.3-7.9l1,2l0.5-0.2l-1-2.1C297.1,418.5,297,418.5,296.9,418.4z M281,427l15.5-7.5l0.8,1.6l0.5-0.2l-1-2l-16.3,7.9l0.4,1l0.5-0.2L281,427z M221.6,57v1.2l0.5-0.6C221.9,57.3,221.7,57.2,221.6,57z M221.6,45.7c0.9-0.3,1.9-0.5,3-0.4c1.7,0.2,3,1,3.8,2.3l10-12.1c0.1-0.1,0.3-0.2,0.4-0.2c0.2,0,0.3,0.1,0.4,0.3l2,4.1l2.2-6.2 l-0.1-2.4c-0.1-2.2-1.8-3.9-4-4.1l-18.7-1.5c0.7,2.8,1.1,5.7,1.1,8.7L221.6,45.7z M226.4,79.9l2.5,1.7c0.1,0.1,0.2,0.2,0.2,0.4 l0.9,8.4l3.3,1.5c2.6-2.1,3.8-5.6,3-8.9l-1.7-7.3l0.2-9l-4.6-0.1L226.4,79.9z M213.5,26.7l-1.8,1.5l-2-0.2c-0.1,0-0.2,0-0.3,0 c1.3,2.9,2,6.1,2,9.5l-0.1,32l0.5,0.4l9.7-11.8V57c-2.1-2.4-4.5-6.2-2.6-9.2c0.6-0.9,1.5-1.6,2.6-2.1l0.1-11.5c0-3-0.4-5.9-1.1-8.7 l-2.6-0.2C216.3,25.2,214.7,25.7,213.5,26.7z M200.3,32.6l-3,4.8c-1.7,2.6-2.2,5.8-1.5,8.9l0.6,2.7c0.5,2.2,0,4.5-1.4,6.3l-3,3.8 c-2.5,3.2-3.4,7.4-2.5,11.4c0.2,0.8,0,1.7-0.5,2.4l-6.1,8.8c-2.2,3.1-2.7,7.1-1.5,10.6l0.3,0.8c0.6,1.6,2,2.7,3.7,2.7l7.4,0.2 l15.9-27.9c0.1-0.1,0.2-0.2,0.3-0.2c0.1,0,0.3,0,0.4,0.1l1.8,1.5l0.1-32c0-3.4-0.7-6.6-2-9.5C205.8,27.7,202.2,29.5,200.3,32.6z M232.3,92.6C232.3,92.5,232.3,92.5,232.3,92.6l-2-1l0.9,1.7L232.3,92.6z M230,90.9l2.8,1.2c0.1-0.1,0.3-0.2,0.4-0.3l-3.3-1.5 L230,90.9z M230.2,91.6l2.1,0.9c0.2-0.1,0.3-0.2,0.5-0.3l-2.8-1.2l0,0.3L230.2,91.6z M247,53.2l-5.1,0.3l0.4,2.1l-4.1,0.9l4.1,3.4 l-0.8,4.3c-0.2,1.2-1.3,2.1-2.6,2.1l-4-0.1l0,0.5l4,0.1c1.5,0,2.8-1,3.1-2.5l0.8-4.3c0-0.2,0-0.4-0.2-0.5l-3.3-2.7l3.1-0.7 c0.3,0,0.4-0.3,0.4-0.6l-0.3-1.6l4.5-0.3c0.2,0,0.3-0.1,0.4-0.2c0.1-0.1,0.1-0.3,0-0.5l-6.4-13.2l-0.2,0.7L247,53.2z M229.8,66 L226,79.6l0.4,0.3l3.7-13.3l4.6,0.1l0-0.5L229.8,66z M222.7,57.5c-0.4-0.4-0.8-0.8-1.2-1.3V57c0.2,0.2,0.3,0.4,0.5,0.6l-0.5,0.6v0.8 L222.7,57.5z M238.8,35.4c-0.2,0-0.3,0-0.4,0.2l-10,12.1c-0.7-1.3-2.1-2.1-3.8-2.3c-1.1-0.1-2.1,0-3,0.4v0.5c2.4-1,5.7-0.4,6.6,2.3 l10.5-12.7l2.2,4.5l0.2-0.7l-2-4.1C239.1,35.5,238.9,35.4,238.8,35.4z M221.5,58.9v-0.8l-9.7,11.8l0.4,0.3L221.5,58.9z M219.4,48 c0.5-0.8,1.3-1.4,2.2-1.8v-0.5c-1.1,0.4-2.1,1.1-2.6,2.1c-1.9,3,0.5,6.8,2.6,9.2v-0.8C219.7,53.9,217.8,50.6,219.4,48z M246.2,52.7 l-4.3,0.2c-0.1,0-0.3,0.1-0.4,0.2c-0.1,0.1-0.1,0.2-0.1,0.4l0.3,1.7l-3.7,0.8c-0.2,0-0.3,0.2-0.4,0.4c-0.1,0.2,0,0.4,0.2,0.5 l3.9,3.2l-0.8,4c-0.2,1-1.1,1.7-2.1,1.7l-4-0.1l0,0.5l4,0.1c1.3,0,2.4-0.9,2.6-2.1l0.8-4.3l-4.1-3.4l4.1-0.9l-0.4-2.1l5.1-0.3 l-6.1-12.7l-0.2,0.7L246.2,52.7z M224.5,46.3c1.6,0.2,2.8,1,3.3,2.4c0.1,0.2,0.2,0.3,0.4,0.3c0.2,0,0.4,0,0.5-0.2l10-12.1l2.1,4.3 l0.2-0.7l-2.2-4.5l-10.5,12.7c-0.9-2.7-4.2-3.3-6.6-2.3v0.5C222.5,46.4,223.5,46.2,224.5,46.3z M229.8,65.6c-0.2,0-0.4,0.2-0.5,0.4 l-3.7,13.4l0.4,0.3l3.8-13.5l5,0.1l0-0.5L229.8,65.6z M223.1,57.8c0.2-0.2,0.1-0.5,0-0.7c-0.4-0.4-1-1-1.5-1.8v0.8 c0.4,0.5,0.8,0.9,1.2,1.3l-1.2,1.4v0.8L223.1,57.8z M219.4,48c-1.6,2.6,0.3,5.8,2.2,8.1v-0.8c-1.6-2-3.1-4.9-1.8-7.1 c0.4-0.6,1-1.2,1.8-1.5v-0.5C220.7,46.6,219.9,47.2,219.4,48z M212.6,70.5l8.9-10.8v-0.8l-9.3,11.3l0,0L212.6,70.5z M245.9,131.8 l0.5,0.2c-0.1,0.2-0.1,0.5-0.2,0.7l-4.4,10.4c-0.4,0.9-0.5,2-0.4,3l14.4,85.2c0,0.1,0,0.3-0.1,0.4s-0.2,0.2-0.4,0.2h-2.8l-0.1-0.5 h2.9l-14.4-85.2c-0.2-1.1-0.1-2.2,0.4-3.3l4.4-10.4C245.8,132.3,245.9,132.1,245.9,131.8z M241.3,142.9L241.3,142.9L241.3,142.9z M181.1,231.4l6.2-53.9l2.8-41l-0.5,0.4l-2.7,40.6l-6.2,53.9c0,0.1,0,0.3,0.1,0.4s0.2,0.2,0.4,0.2h6.5l0-0.5H181.1z M192.7,97.3 l0.7-1.2l-0.6,0l-0.6,1c0,0.1-0.1,0.1-0.1,0.2l-0.1,1.9l0.5-0.3L192.7,97.3z M245.9,123.3l-14.8-30l-0.4,0.3l14.8,30 c1.1,2.3,1.4,4.9,0.8,7.4l0.5,0.2C247.3,128.5,247.1,125.7,245.9,123.3z M246.1,131.4c-0.1,0.2-0.1,0.3-0.2,0.5l0.5,0.2 c0.1-0.2,0.1-0.3,0.2-0.5L246.1,131.4z M246.2,130.9c0,0.2-0.1,0.3-0.1,0.5l0.5,0.2c0.1-0.2,0.1-0.3,0.1-0.5L246.2,130.9z M220.8,231.4v0.5h31.7l-0.1-0.5H220.8z M210.6,231.9h10.2v-0.5h-10.2V231.9z M187.6,231.9h23.1v-0.5h-23.1L187.6,231.9z M228.6,81.9l0.8,8.2l0.5,0.2l-0.9-8.4c0-0.2-0.1-0.3-0.2-0.4l-2.5-1.7l-0.1,0.5L228.6,81.9z M211.5,70.3l0.3-0.4l-0.5-0.4v0.6 L211.5,70.3z M209.1,67.9c-0.1,0-0.3,0.1-0.3,0.2L192.8,96l0.6,0l15.8-27.7l2.1,1.8v-0.6l-1.8-1.5C209.4,67.9,209.2,67.8,209.1,67.9 z M230.7,93.6l0.4-0.3l-0.9-1.7l-0.7-0.3l0,0.1L230.7,93.6z M229.5,90.7l0.5,0.2l-0.1-0.6l-0.5-0.2L229.5,90.7z M229.6,91.3l0.7,0.3 l-0.2-0.4l0-0.3l-0.5-0.2L229.6,91.3z M221.5,77.1l3.9,2.7l0.1-0.5l-4.1-2.8V77.1z M221.5,76.5l-8.8-6l-0.3,0.4l9.1,6.2L221.5,76.5z M226.3,80.4l0.1-0.5l-0.4-0.3l-0.1,0.5L226.3,80.4z M211.9,70.6l0.3-0.4l-0.4-0.3l-0.3,0.4L211.9,70.6z M225.4,79.8l0.4,0.3 l0.1-0.5l-0.4-0.3L225.4,79.8z M212.3,70.9l0.3-0.4l-0.4-0.3l0,0l-0.3,0.4l0,0L212.3,70.9z M245.2,132.3l-4.4,10.4 c-0.5,1.1-0.6,2.4-0.4,3.6l14.3,84.7h-2.5l0.1,0.5h2.9l-14.4-85.2c-0.2-1.1-0.1-2.2,0.4-3.3l4.4-10.4c0.1-0.2,0.2-0.4,0.2-0.7 l-0.5-0.2C245.4,131.9,245.3,132.1,245.2,132.3z M192.6,98.7l0.5-0.3l0.1-1l0.8-1.4l-0.6,0l-0.7,1.2L192.6,98.7z M187.8,177.5 l2.7-40.6l-0.4-0.5l-0.1,0.1l-2.8,41l-6.2,53.9h6.5l0-0.5h-6L187.8,177.5z M245.4,123.5l-14.8-30l-0.4,0.3l14.8,29.9 c1.1,2.2,1.3,4.6,0.8,6.9l0.5,0.2C246.8,128.4,246.6,125.8,245.4,123.5z M245.5,131.6l0.5,0.2c0.1-0.2,0.1-0.3,0.2-0.5l-0.5-0.2 C245.6,131.3,245.5,131.5,245.5,131.6z M245.8,130.7c0,0.2-0.1,0.3-0.1,0.5l0.5,0.2c0.1-0.2,0.1-0.3,0.1-0.5L245.8,130.7z M220.8,230.9v0.5h31.6l-0.1-0.5H220.8z M210.6,230.9v0.5h10.2v-0.5H210.6z M187.6,231.4h23.1v-0.5h-23.1L187.6,231.4z M228.1,82.2 l0.8,7.7l0.5,0.2l-0.8-8.2l-2.3-1.6l-0.1,0.5L228.1,82.2z M211.5,70.3l-0.2-0.2v0.4L211.5,70.3z M209.3,69.1l1.9,1.5l0.1-0.1v-0.4 l-2.1-1.8L193.4,96l0.6,0L209.3,69.1z M229.1,91.4c0,0.1,0,0.1,0.1,0.2l1.1,2.3l0.4-0.3l-1.1-2.2l0-0.1L229,91L229.1,91.4z M229,90.5l0.5,0.2l-0.1-0.6l-0.5-0.2L229,90.5z M229,91l0.5,0.2l-0.1-0.6l-0.5-0.2L229,91z M221.5,77.7l3.8,2.6l0.1-0.5l-3.9-2.7 L221.5,77.7z M221.5,77.1l-9.1-6.2l-0.3,0.4l9.4,6.4L221.5,77.1z M226.1,80.9l0.1-0.5l-0.4-0.3l-0.1,0.5L226.1,80.9z M211.3,70.8 l0.3,0.2l0.3-0.4l-0.4-0.3l-0.2,0.2L211.3,70.8z M211.3,70.5l-0.1,0.1l0.1,0.1V70.5z M225.7,80.6l0.1-0.5l-0.4-0.3l-0.1,0.5 L225.7,80.6z M211.6,71l0.4,0.2l0.3-0.4l-0.4-0.3l0,0L211.6,71L211.6,71z M137.2,262.2h4l0.6-5.6h-4L137.2,262.2z M132.5,232.8 l-0.3,2.6c0.8,0.7,1.5,1.4,2.2,2.2c2.9,3.5,4.3,7.9,4,12.4h4c0.3-5.4-1.4-10.7-4.9-14.9c-0.8-1-1.7-1.9-2.6-2.7 c-0.2,0.2-0.4,0.3-0.6,0.4C133.7,233,133.1,233,132.5,232.8z M102.7,247.1c0.5-5.3,3.3-9.8,7.3-12.7l0.5-5c-1.4,0.7-2.8,1.6-4,2.6 c-4.5,3.7-7.3,8.9-7.8,14.7l-0.3,2.8l4,0L102.7,247.1z M101.1,263l1.2-12.4l-4,0l-1.2,12.1L101.1,263z M102.4,250l0.1-0.5l-4,0 l-0.1,0.5L102.4,250z M102.3,250.5l0.1-0.5l-4,0l-0.1,0.5L102.3,250.5z M142.3,251h-4l-0.4,4.6h4L142.3,251z M137.8,256.1l-0.1,0.5 h4l0.1-0.5H137.8z M138.4,250.5h4c0-0.2,0-0.3,0-0.5h-4C138.4,250.2,138.4,250.3,138.4,250.5z M138.3,251h4v0c0-0.2,0-0.3,0-0.5h-4 c0,0,0,0.1,0,0.1L138.3,251z M137.9,255.6l-0.1,0.5h4l0.1-0.5H137.9z M140.8,266.8l0.4-3.6h-4l-0.3,3.2L140.8,266.8z M137.1,262.7h4 l0.1-0.5h-4L137.1,262.7z M141.1,263.2l0.1-0.5h-4l-0.1,0.5H141.1z M135.8,168.1h-0.5l-2,5.6h0.5L135.8,168.1z M143.3,147.4 c1.1-3,3-5.8,5.4-7.9l27.3-23.4l-0.3-0.4l-27.4,23.4c-2.5,2.2-4.4,4.9-5.6,8.1l-0.7,2h0.5L143.3,147.4z M136.8,214.4l-0.8,11.9 l-0.9,5l0,0c-0.1,0.3-0.3,0.5-0.5,0.7c0.1,0.1,0.2,0.2,0.4,0.3c0.3-0.2,0.5-0.5,0.6-0.9l0.9-5.2l0.8-11.9l2.9-6.3l-0.4-0.3 L136.8,214.4z M131.3,180.3h-0.5l-2,5.6h0.5L131.3,180.3z M140.2,155.9h-0.5l-2,5.6h0.5L140.2,155.9z M126.4,242.8 c-0.1,0.1-0.2,0.2-0.4,0.2c0,0,0,0,0,0c-0.2,0-0.3-0.1-0.4-0.2c-2.3,1.6-4.2,0.1-5-0.6c-0.1,0.1-0.2,0.1-0.3,0.1c0,0,0,0-0.1,0 c-0.2,0-0.3-0.1-0.4-0.3c-3.3,1.5-4.6-0.9-5-1.9c-0.1,0-0.1,0-0.2,0c0,0,0,0-0.1,0c-0.2,0-0.4-0.2-0.4-0.3c-3,0.9-4.2-1.4-4.2-1.4 l0.4-4.3c-0.2,0.1-0.3,0.2-0.5,0.4l-0.4,4l0.1,0.1c0,0,1.4,2.7,4.8,1.7c0.3,0.7,0.9,1.9,2.1,2.5c1,0.5,2.3,0.4,3.7-0.3 c0.5,0.5,1.5,1.4,2.8,1.6c0.2,0,0.3,0,0.5,0c0.9,0,1.7-0.3,2.5-0.9c1.3,0.8,3.7,1.4,5.4-0.9l0.1-0.1l0.7-6.7 c-0.1-0.1-0.3-0.3-0.5-0.4l-0.7,6.9C129.4,244,127.3,243.2,126.4,242.8z M149.8,185.8h0.6l8.1-17.8H158L149.8,185.8z M161,161.4h0.6 l2.6-5.6h-0.6L161,161.4z M140.2,206.8h0.6l6.6-14.3h-0.6L140.2,206.8z M111.5,224.6l9.2-15.1l0.6-1.7l-0.4-0.3l-0.6,1.7l-9.2,15.1 l-0.5,5.1c0.2-0.1,0.3-0.2,0.5-0.2L111.5,224.6z M171.7,149.3h0.9l17-12.4l0-0.6L171.7,149.3z M126.9,192.5h-0.5l-5.2,14.3h0.5 L126.9,192.5z M121.5,207.3L121.5,207.3L121.5,207.3l0.2-0.6h-0.5l-0.3,0.8l0.4,0.3L121.5,207.3z M121.4,207.3L121.4,207.3 L121.4,207.3L121.4,207.3z M139.9,207.5l-0.2,0.5l0.4,0.3l0.2-0.5L139.9,207.5z M140,207.3h0.6l0.2-0.5h-0.6L140,207.3z M140.4,207.8l0.2-0.5H140l-0.1,0.2L140.4,207.8z M164,154.9h0.8l6.3-4.6h-0.9L164,154.9L164,154.9z M141.7,150.3l-1.7,4.6h0.5 l1.7-4.6H141.7z M142.4,149.8l0.2-0.5h-0.5l-0.2,0.5H142.4z M140.4,155.4h-0.5l-0.2,0.5h0.5L140.4,155.4z M171,149.8h0.9l0.7-0.5 h-0.9L171,149.8z M163.8,155.4l-0.2,0.5h0.6l0.2-0.5H163.8z M140,154.9l-0.2,0.5h0.5l0.2-0.5H140z M142.2,150.3l0.2-0.5h-0.5 l-0.2,0.5H142.2z M171.2,150.3l0.7-0.5H171l-0.7,0.5H171.2z M164.8,154.9H164l-0.2,0.5h0.6l0.1-0.2L164.8,154.9z M137.3,162.4 l-1.7,4.6h0.5l1.7-4.6H137.3z M159,167.1l2.1-4.6h-0.6l-2.1,4.6H159z M160.8,161.9h0.6l0.2-0.5H161L160.8,161.9z M138,161.9l0.2-0.5 h-0.5l-0.2,0.5H138z M135.9,167.6h-0.5l-0.2,0.5h0.5L135.9,167.6z M158.2,167.6l-0.2,0.5h0.6l0.2-0.5H158.2z M137.8,162.4l0.2-0.5 h-0.5l-0.2,0.5H137.8z M135.6,167.1l-0.2,0.5h0.5l0.2-0.5H135.6z M158.4,167.1l-0.2,0.5h0.6l0.2-0.5H158.4z M161.1,162.4l0.2-0.5 h-0.6l-0.2,0.5H161.1z M132.9,174.6l-1.7,4.6h0.5l1.7-4.6H132.9z M133.6,174.1l0.2-0.5h-0.5l-0.2,0.5H133.6z M131.5,179.8H131 l-0.2,0.5h0.5L131.5,179.8z M131.2,179.3l-0.2,0.5h0.5l0.2-0.5H131.2z M133.4,174.6l0.2-0.5H133l-0.2,0.5H133.4z M128.4,186.8 l-1.7,4.6h0.5l1.7-4.6H128.4z M147.8,191.5l2.1-4.6h-0.6l-2.1,4.6H147.8z M127.1,192h-0.5l-0.2,0.5h0.5L127.1,192z M129.1,186.3 l0.2-0.5h-0.5l-0.2,0.5H129.1z M149.6,186.3h0.6l0.2-0.5h-0.6L149.6,186.3z M147,192l-0.2,0.5h0.6l0.2-0.5H147z M147.3,191.5 L147,192h0.6l0.2-0.5H147.3z M149.9,186.8l0.2-0.5h-0.6l-0.2,0.5H149.9z M126.8,191.5l-0.2,0.5h0.5l0.2-0.5H126.8z M129,186.8 l0.2-0.5h-0.5l-0.2,0.5H129z M190,136.3l-0.2-0.3l-0.3,0.2l0,0.6l0.5-0.4L190,136.3z M190,136.3l0,0.2l0.1-0.1L190,136.3z M132.5,232.3c-0.3-0.1-0.4-0.1-0.5,0.2l-0.3,2.5c0.2,0.1,0.3,0.3,0.5,0.4l0.3-2.6c0.6,0.2,1.2,0.2,1.7,0c0.2-0.1,0.4-0.2,0.6-0.4 c-0.1-0.1-0.2-0.2-0.4-0.3C134,232.5,133.2,232.6,132.5,232.3z M110.6,234l0.5-4.9c-0.2,0.1-0.3,0.1-0.5,0.2l-0.5,5 C110.2,234.3,110.4,234.2,110.6,234z M112,224.8l9.2-15.1l0.6-1.5l-0.4-0.3l-0.6,1.7l-9.2,15.1l-0.5,4.6c0.2-0.1,0.3-0.2,0.5-0.2 L112,224.8z M149.3,185.8h0.6l8.1-17.8h-0.6L149.3,185.8z M114.3,239.8c0-0.1,0-0.1,0-0.2l0-0.3c-2.3,0.8-3.4-0.6-3.7-1l0.5-4.5 c-0.2,0.1-0.4,0.2-0.5,0.3l-0.4,4.3C110.1,238.3,111.3,240.6,114.3,239.8z M189.6,135.6l-18.7,13.7h0.9l17.9-13L189.6,135.6 L189.6,135.6z M119.8,241.5c-1.2,0.6-2.1,0.7-2.9,0.4c-1.2-0.5-1.6-1.9-1.7-2.2l0,0.1c0,0.2-0.2,0.4-0.3,0.4c0.4,1.1,1.7,3.4,5,1.9 c0-0.1-0.1-0.2-0.1-0.3L119.8,241.5z M139.7,206.8h0.6l6.6-14.3h-0.6L139.7,206.8z M125.5,242.2c-0.8,0.6-1.6,0.9-2.3,0.8 c-1.2-0.1-2-1-2.3-1.4l0,0.2c0,0.1-0.1,0.2-0.2,0.3c0.7,0.8,2.6,2.2,5,0.6c-0.1-0.1-0.1-0.2-0.1-0.3L125.5,242.2z M136.3,168.1h-0.5 l-2,5.6h0.5L136.3,168.1z M130.6,241.7c-1.4,1.8-3.4,0.9-4,0.5l0,0.3c0,0.1,0,0.2-0.1,0.2c0.9,0.5,3,1.2,4.6-0.8l0.7-6.9 c-0.1-0.1-0.3-0.2-0.5-0.4L130.6,241.7z M127.4,192.5h-0.5l-5.2,14.3h0.5L127.4,192.5z M160.5,161.4h0.6l2.6-5.6H163L160.5,161.4z M143.7,147.6c1.1-3,2.9-5.6,5.3-7.6l27.3-23.4l-0.3-0.4l-27.3,23.4c-2.5,2.1-4.3,4.8-5.4,7.9l-0.7,1.9h0.5L143.7,147.6z M136.3,214.2l-0.9,12.1l-0.9,4.9c-0.1,0.2-0.3,0.4-0.5,0.6c0.1,0.1,0.3,0.2,0.4,0.3c0.2-0.2,0.4-0.4,0.5-0.7l0,0l0.9-5l0.8-11.9 l2.9-6.4l-0.4-0.3L136.3,214.2z M140.7,155.9h-0.5l-2,5.6h0.5L140.7,155.9z M131.9,180.3h-0.5l-2,5.6h0.5L131.9,180.3z M122.3,206.8 h-0.5l-0.2,0.5h0.5L122.3,206.8z M121.9,207.6l-0.4-0.3l-0.2,0.5l0.4,0.3L121.9,207.6z M122.1,207.3h-0.5l0,0.1l0.4,0.3L122.1,207.3 z M139.3,207.6l0.4,0.3l0.2-0.5l-0.2-0.2h0.3l0.2-0.5h-0.6L139.3,207.6z M139.9,207.5l0.1-0.2h-0.3L139.9,207.5z M163.5,154.9h0.6 l0,0l6.3-4.6h-0.9l-5.8,4.2L163.5,154.9z M142.2,150.3l-1.7,4.6h0.5l1.7-4.6H142.2z M170.1,149.8h0.9l0.7-0.5h-0.9L170.1,149.8z M163,155.9h0.6l0.2-0.5h-0.6L163,155.9z M143.1,149.3h-0.5l-0.2,0.5h0.5L143.1,149.3z M140.9,155.4h-0.5l-0.2,0.5h0.5L140.9,155.4z M141.1,154.9h-0.5l-0.2,0.5h0.5L141.1,154.9z M169.5,150.3h0.9l0.7-0.5h-0.9L169.5,150.3z M163.5,154.9l-0.2,0.5h0.6l0.2-0.5H163.5 z M142.8,150.3l0.2-0.5h-0.5l-0.2,0.5H142.8z M158.4,167.1l2.1-4.6H160l-2.1,4.6H158.4z M137.8,162.4l-1.7,4.6h0.5l1.7-4.6H137.8z M136.5,167.6h-0.5l-0.2,0.5h0.5L136.5,167.6z M138.7,161.4h-0.5l-0.2,0.5h0.5L138.7,161.4z M160.2,161.9h0.6l0.2-0.5h-0.6 L160.2,161.9z M157.4,168.1h0.6l0.2-0.5h-0.6L157.4,168.1z M160,162.4h0.6l0.2-0.5h-0.6L160,162.4z M138.3,162.4l0.2-0.5H138 l-0.2,0.5H138.3z M136.7,167.1h-0.5l-0.2,0.5h0.5L136.7,167.1z M157.9,167.1l-0.2,0.5h0.6l0.2-0.5H157.9z M133.4,174.6l-1.7,4.6h0.5 l1.7-4.6H133.4z M134.3,173.6h-0.5l-0.2,0.5h0.5L134.3,173.6z M132.1,179.8h-0.5l-0.2,0.5h0.5L132.1,179.8z M133.9,174.6l0.2-0.5 h-0.5l-0.2,0.5H133.9z M132.2,179.3h-0.5l-0.2,0.5h0.5L132.2,179.3z M129,186.8l-1.7,4.6h0.5l1.7-4.6H129z M147.3,191.5l2.1-4.6 h-0.6l-2.1,4.6H147.3z M149.1,186.3h0.6l0.2-0.5h-0.6L149.1,186.3z M146.3,192.5h0.6l0.2-0.5h-0.6L146.3,192.5z M127.6,192h-0.5 l-0.2,0.5h0.5L127.6,192z M129.9,185.8h-0.5l-0.2,0.5h0.5L129.9,185.8z M148.8,186.8h0.6l0.2-0.5h-0.6L148.8,186.8z M127.8,191.5 h-0.5l-0.2,0.5h0.5L127.8,191.5z M129.5,186.8l0.2-0.5h-0.5l-0.2,0.5H129.5z M146.7,191.5l-0.2,0.5h0.6l0.2-0.5H146.7z M189.5,136.2 l0.3-0.2l-0.3-0.4L189.5,136.2z M111.6,228.9c-0.2,0.1-0.3,0.2-0.5,0.2l-0.5,4.9c0.2-0.1,0.4-0.2,0.5-0.3L111.6,228.9z M133.9,231.9 c-0.4,0.1-0.8,0.1-1.1,0c-0.1-0.1-0.5-0.2-0.8,0c-0.1,0.1-0.3,0.3-0.4,0.6l-0.2,2.2c0.1,0.1,0.3,0.2,0.5,0.4l0.3-2.5 c0-0.3,0.2-0.3,0.5-0.2c0.7,0.3,1.4,0.2,2-0.2c-0.1-0.1-0.3-0.2-0.4-0.3C134,231.8,133.9,231.9,133.9,231.9z M300.8,423 c0.3,0,0.5,0.1,0.5,0.4l0,0l5.9-0.7v-0.1c0-0.3,0.2-0.5,0.5-0.5c0.3,0,0.5,0.2,0.5,0.4l3.1-0.4v-0.1c0-0.3,0.2-0.5,0.5-0.5 c0.3,0,0.5,0.2,0.5,0.5l3.5-0.4c0.1-0.1,0.2-0.2,0.4-0.2c0.1,0,0.2,0,0.3,0.1l0.4,0c2.3-0.3,4.6-0.8,6.8-1.7l12.5-4.9 c2.9-1.2,6.2-0.5,8.5,1.6l2.5,2.3l-56.6,32l-3.1-5.3c-1.5-2.6-2.6-5.5-3.3-8.5l-0.4-1.8l-0.4-0.2c-0.1,0-0.2-0.1-0.2-0.2l0,0 l0.5,2.4c0.7,3,1.8,6,3.4,8.6l3.1,5.3c0.1,0.2,0.3,0.2,0.4,0.2c0.1,0,0.2,0,0.2-0.1l56.6-32c0.1-0.1,0.2-0.2,0.2-0.4s0-0.3-0.1-0.4 l-2.5-2.3c-2.4-2.3-6-3-9.1-1.8l-12.5,4.9c-2.1,0.9-4.4,1.4-6.7,1.7l-17.5,2l0,0L300.8,423z M311.8,421.8c-0.3,0-0.5,0.2-0.5,0.5 v0.1l1-0.1C312.3,421.9,312.1,421.8,311.8,421.8z M351,60L351,60L351,60L351,60z M316.2,421.6c-0.2,0-0.3,0.1-0.4,0.2l0.7-0.1 C316.5,421.6,316.4,421.6,316.2,421.6z M307.7,422.2c-0.3,0-0.5,0.2-0.5,0.5v0.1l1-0.1C308.2,422.4,308,422.2,307.7,422.2z M167.4,436c0.4,2.3,2.4,4,4.7,4h6.2c4.2,0,7.9,3,8.8,7.1l0.6,2.9l-23,0.6c-1.3,0-2.6-0.6-3.4-1.7l-9.2-13.3h-0.6l9.4,13.6 c0.8,1.2,2.2,1.9,3.7,1.9c0,0,0.1,0,0.1,0l23-0.6c0.1,0,0.3-0.1,0.4-0.2c0.1-0.1,0.1-0.3,0.1-0.4l-0.6-2.9c-0.9-4.4-4.8-7.5-9.2-7.5 h-6.2c-2.1,0-3.9-1.5-4.2-3.5l-0.1-0.3h-0.5L167.4,436z M33.8,384.9h35.7v35.8H33.8V384.9z M34.3,420.1h34.7v-34.8H34.3V420.1z M124.5,107.6l-4.6-3.3h5.7l1.8-5.4l1.8,5.4h5.7l-4.6,3.3l1.8,5.4l-4.6-3.3l-4.6,3.3L124.5,107.6z M125.1,107.4l-1.4,4.3l3.7-2.7 l3.7,2.7l-1.4-4.3l3.7-2.7h-4.5l-1.4-4.3l-1.4,4.3h-4.5L125.1,107.4z M163.2,89.9H121v-6.6h42.2V89.9z M162.7,83.8h-41.2v5.6h41.2 V83.8z M153.1,104.2l-4.6,3.3l1.8,5.4l-4.6-3.3L141,113l1.8-5.4l-4.6-3.3h5.7l1.8-5.4l1.8,5.4H153.1z M147.9,107.4l3.7-2.7H147 l-1.4-4.3l-1.4,4.3h-4.5l3.7,2.7l-1.4,4.3l3.7-2.7l3.7,2.7L147.9,107.4z M150.2,307.5h0.5l0.7-14.3h-0.5L150.2,307.5z M173.6,111.8 L192,99.7l0-0.6l-18.7,12.3c-0.1,0.1-0.2,0.2-0.2,0.3s0,0.3,0.1,0.4l2.6,3.7l0.4-0.3L173.6,111.8z M149.9,315.1l0.4,1.1l-0.4-0.3 l-1.7,34.9l-76.4-7.5l2.8-15.7H74l-2.9,16.2l76.9,7.5l0.5,0l2-42.1l-0.5,0.4L149.9,315.1z M151.2,286.6h0.5l0.3-5.6h-0.5 L151.2,286.6z M111.2,125.2l-76.6-0.2V46.7l76.6,0.3V125.2z M110.7,47.5L35,47.2v77.2l75.6,0.2V47.5z M151.8,274.4h0.5l0.3-5.6h-0.5 L151.8,274.4z M141.8,420.6h-0.6l10.4,15h0.6L141.8,420.6z M165.6,425.5c0-0.1-0.1-0.2-0.1-0.2l0.1,0.4 C165.6,425.7,165.6,425.6,165.6,425.5z M77.9,384.9h35.8v35.8H77.9V384.9z M78.4,420.1h34.8v-34.8H78.4V420.1z M120.9,265.4v-0.5 l-10.3-1c0,0.1,0,0.4,0,0.5L120.9,265.4z M164.8,418.6c0,0.1-0.1,0.1-0.1,0.2l-0.2,0.2l1.1,6.3c0.1,0.1,0.1,0.1,0.1,0.2 c0,0.1,0,0.1,0,0.2l0.7,3.9c0,0.1,0.1,0.1,0.1,0.2c0,0.1,0,0.1,0,0.2l1,5.6h0.5l-3.1-17.2L164.8,418.6z M166.4,429.9 c0-0.1,0-0.1-0.1-0.2l0.1,0.4C166.4,430,166.4,430,166.4,429.9z M182.8,53.3h-61.8v-6.6h61.8V53.3z M182.3,47.2h-60.8v5.6h60.8V47.2 z M120.9,71.1h58.3v6.6h-58.3V71.1z M121.4,77.2h57.3v-5.6h-57.3V77.2z M110.6,227L34,226.8v-78.2l76.6,0.2V227z M110.1,149.3 l-75.6-0.2v77.2l75.6,0.1V149.3z M177,65.5h-56.1v-6.6H177V65.5z M176.5,59.4h-55.1V65h55.1V59.4z M170.1,104.2l-4.6,3.3l1.8,5.4 l-4.6-3.3L158,113l1.8-5.4l-4.6-3.3h5.7l1.8-5.4l1.8,5.4H170.1z M164.9,107.4l3.7-2.7H164l-1.4-4.3l-1.4,4.3h-4.5l3.7,2.7l-1.4,4.3 l3.7-2.7l3.7,2.7L164.9,107.4z M62.7,78.7c0.1-0.2,0.2-0.3,0.3-0.5l8.9,0h-0.4l-8.5,0l0-0.5h-0.2L62.6,78c0,0.1-0.1,0.1-0.1,0.1 l0.1,0.6H62.7z M62.7,77.7H63l-1.3-12.2c1.7-1.7,3.2-3.8,4-6.3c0.3-1,0.6-2.1,0.7-3.1h0.8c0,1,0.2,2,0.4,2.5c0.6,2.2,2.3,3.9,4.2,4 c2-0.1,3.6-1.8,4.2-4c0.1-0.5,0.4-1.6,0.4-2.5h0.8c0.1,1.1,0.3,2.1,0.7,3.1c0.8,2.5,2.3,4.6,4,6.3l-1.3,12.2h0.2l0.2,0.2 c0,0.1,0.1,0.1,0.1,0.2l1.3-12.7l-0.2-0.2c-1.8-1.8-3.2-3.9-3.9-6.1c-0.3-0.9-0.5-1.9-0.6-3l0-0.5l-1.8,0l0,0.5 c0,0.8-0.2,1.8-0.4,2.4c-0.6,2.1-2.1,3.5-3.7,3.6c-1.7-0.1-3.2-1.6-3.8-3.7c-0.2-0.6-0.3-1.6-0.4-2.4l0-0.5l-1.8,0l0,0.5 c-0.1,1.1-0.3,2.1-0.6,3c-0.8,2.2-2.1,4.2-3.9,6.1l-0.2,0.2l1.4,12.7c0-0.1,0.1-0.1,0.1-0.1L62.7,77.7z M35,47.2l75.6,0.3v77.2 L35,124.4C35,124.4,35,47.2,35,47.2z M35.5,123.9l74.6,0.2V48l-74.6-0.3C35.5,47.7,35.5,123.9,35.5,123.9z M80.9,77.8h-0.2l-0.1,0.5 l0,0c0.1,0.2,0.2,0.3,0.3,0.5h0.1l0.1-0.6c0-0.1-0.1-0.1-0.1-0.2L80.9,77.8z M81.2,78.2l-0.1,0.6H81c5.2,8.3,8.1,20,10.5,32.7 c-3.8,3.8-34.6,4.1-39.3-0.1c2.1-11.8,4.8-23.2,10.5-32.6h-0.2l-0.1-0.6c-6.1,9.9-8.8,21.8-10.8,33.2l0,0.3l0.2,0.2 c2.4,2.2,11.5,3.3,20.5,3.3c8.8,0,17.4-1.1,19.5-3.2l0.2-0.2l-0.1-0.3C89.8,100,86.8,87.1,81.2,78.2z M63.5,77.7l16.7,0.1l0,0 L63.5,77.7L63.5,77.7z M62.2,65.8c1.9-1.9,3.2-4,4-6.3c0.3-0.8,0.5-1.6,0.6-2.5c0.1,0.9,0.3,1.6,0.3,1.8c0.7,2.5,2.6,4.3,4.7,4.4 c2.1-0.1,4-1.9,4.7-4.4c0.1-0.5,0.3-1.1,0.3-1.8c0.1,0.9,0.3,1.7,0.6,2.5c0.8,2.3,2.1,4.4,4,6.3l-1.3,12h0.5L82,65.7 c-1.7-1.7-3.2-3.8-4-6.3c-0.3-1-0.6-2.1-0.7-3.1h-0.8c0,1-0.2,2-0.4,2.5c-0.6,2.2-2.3,3.9-4.2,4c-2-0.1-3.6-1.8-4.2-4 c-0.1-0.5-0.4-1.6-0.4-2.5h-0.8c-0.1,1.1-0.3,2.1-0.7,3.1c-0.8,2.5-2.3,4.6-4,6.3L63,77.7h0.5L62.2,65.8z M80.7,77.8h-0.5l0,0 l-16.7-0.1l0,0H63l0,0.5l8.4,0h0.4l8.8,0L80.7,77.8z M80.4,78.8l-7.6,0L80.4,78.8L80.4,78.8z M90.9,111.3 c-4.4,3.6-33.4,3.5-38.2-0.2c2-11.2,4.6-22.8,10.6-32.4l9.5,0l-10.1,0c-5.8,9.5-8.5,20.8-10.5,32.6c4.7,4.3,35.5,4,39.3,0.1 c-2.4-12.7-5.4-24.4-10.5-32.7h-0.6C85.9,87.5,88.8,100.1,90.9,111.3z M80.6,78.3L80.6,78.3l-8.4,0h-0.3l-8.9,0 c-0.1,0.2-0.2,0.3-0.3,0.5l10.1,0l7.6,0l0,0H81C80.8,78.6,80.8,78.5,80.6,78.3L80.6,78.3z M80.6,78.3L80.6,78.3l-8.8,0h0.3 L80.6,78.3z M125.1,107.4l-3.7-2.7h4.5l1.4-4.3l1.4,4.3h4.5l-3.7,2.7l1.4,4.3l-3.7-2.7l-3.7,2.7L125.1,107.4z M125.7,107.2l-1,3.2 l2.7-2l2.7,2l-1-3.2l2.7-2h-3.4l-1-3.2l-1,3.2H123L125.7,107.2z M151.6,104.7l-3.7,2.7l1.4,4.3l-3.7-2.7l-3.7,2.7l1.4-4.3l-3.7-2.7 h4.5l1.4-4.3l1.4,4.3H151.6z M147.3,107.2l2.7-2h-3.4l-1-3.2l-1,3.2h-3.4l2.7,2l-1,3.2l2.7-2l2.7,2L147.3,107.2z M168.5,104.7 l-3.7,2.7l1.4,4.3l-3.7-2.7l-3.7,2.7l1.4-4.3l-3.7-2.7h4.5l1.4-4.3l1.4,4.3H168.5z M164.3,107.2l2.7-2h-3.4l-1-3.2l-1,3.2h-3.4 l2.7,2l-1,3.2l2.7-2l2.7,2L164.3,107.2z M121.4,47.2h60.8v5.6h-60.8V47.2z M121.9,52.3h59.8v-4.6h-59.8V52.3z M121.4,59.4h55.1V65 h-55.1V59.4z M121.9,64.5H176v-4.6h-54.1L121.9,64.5L121.9,64.5z M178.8,77.2h-57.3v-5.6h57.3V77.2z M178.3,72.1h-56.3v4.6h56.3 V72.1z M121.4,83.8h41.2v5.6h-41.2C121.4,89.4,121.4,83.8,121.4,83.8z M121.9,88.9h40.2v-4.6H122C121.9,84.3,121.9,88.9,121.9,88.9z M62.7,195.8v-0.4c-0.2-0.2-0.3-0.3-0.5-0.5c-0.5-0.3-0.9-0.4-1.3-0.5c0.3,0.3,0.7,0.6,1,0.9c0,0,0,0,0,0L62.7,195.8z M48.9,190.8 c-0.1-0.4-0.1-0.8-0.2-1.1c-0.2,0.4-0.3,0.7-0.3,1.1l0.2,0.9l0.4-0.4L48.9,190.8z M54.5,211.1h-1.8L49,191.4l-0.4,0.4l3.7,19.8 l2.7,0l0-0.5c0.4-7.1,1.2-14.5,4-16c0.8-0.4,1.8-0.4,2.9,0.3c-0.3-0.3-0.7-0.6-1-0.9C56,193.2,55,202.7,54.5,211.1z M34.5,149.1 l75.6,0.2v77.2l-75.6-0.1V149.1z M35,225.8l74.6,0.1v-76.2L35,149.6V225.8z M84.1,197.2c-1.3-1.5-16.1-17.8-22.4-26.1l-0.2-0.3 l-0.3,0.1c-11,4.3-14.5,9.7-12.6,20l0.2,0.9l0,0l-0.2-0.9c0-0.4,0.1-0.8,0.3-1.1c-1.3-8.8,1.6-14.1,12.5-18.3 c6.7,8.8,22.6,26.3,22.6,26.3s17.4,4.9,17.8,12.7l-26.3-0.1c-4.6-6.2-8.8-11.3-12.6-14.9v0.4l-0.7-0.4c0,0,0,0,0,0 c3.7,3.4,8,8.5,13,15.2l0.2,0.2l27.1,0.1l0-0.5C101.7,202.6,85.9,197.8,84.1,197.2z M60.1,193.8c0.2,0.2,0.5,0.4,0.7,0.6 c0.4,0.1,0.8,0.3,1.3,0.5c-0.4-0.3-0.7-0.7-1.1-1C60.8,193.9,60.4,193.8,60.1,193.8z M49.5,190.4c0,0.1-0.1,0.3-0.1,0.4l0,0.3 c1-0.8,2.2-1.1,3.6-1c2,0.2,4.4,1.5,7.1,3.7c0.3,0,0.6,0.1,0.9,0.1C56.4,189.9,52.4,188.5,49.5,190.4z M58.5,194.2 c-3.1,1.8-4,8.9-4.5,16.4h-0.9L49.5,191c-0.1,0.1-0.2,0.1-0.2,0.2l-0.2,0.2l3.7,19.7h1.8c0.5-8.4,1.5-17.8,6.3-16.7 c-0.2-0.2-0.5-0.4-0.7-0.6C59.5,193.8,59,193.9,58.5,194.2z M49.5,191l0-0.3c0-0.1,0-0.3,0.1-0.4c-0.2,0.1-0.4,0.3-0.6,0.4l0.1,0.6 l0.2-0.2C49.3,191.1,49.4,191.1,49.5,191z M62.7,194.7c-0.2-0.2-0.3-0.3-0.5-0.5c0,0.2,0,0.4,0,0.7c0,0,0,0,0,0 c0.2,0.1,0.3,0.3,0.5,0.5v-0.5C62.7,194.9,62.7,194.8,62.7,194.7z M49.2,189.8c0-0.2,0-0.4-0.1-0.6c-0.2,0.2-0.3,0.4-0.4,0.6 c0,0.4,0.1,0.7,0.2,1.1C48.9,190.4,49,190.1,49.2,189.8z M62.1,194.3c0.2,0.2,0.3,0.3,0.5,0.5c-0.1-2.2-1.1-4.1-3-5.4 c-1.6-1.1-3.7-1.7-5.9-1.7c-2.1,0-3.7,0.6-4.7,1.5c0,0.2,0,0.4,0.1,0.6C51.2,186.9,61.5,187.5,62.1,194.3z M61.1,172 c6.7,8.8,22.2,25.8,22.4,26l0.1,0.1l0.1,0c0.2,0.1,16.2,4.7,17.3,11.7l-25.5-0.1c-4.9-6.6-9.2-11.6-12.9-15.1c0,0.1,0,0.1,0,0.2v0.5 c3.8,3.6,8,8.7,12.6,14.9l26.3,0.1c-0.4-7.8-17.8-12.7-17.8-12.7s-15.9-17.5-22.6-26.3c-10.9,4.2-13.8,9.5-12.5,18.3 c0.1-0.2,0.3-0.4,0.4-0.6C48.1,180.5,51.3,175.9,61.1,172z M50.5,189.3c-0.5,0.3-0.9,0.6-1.1,1c3-1.9,6.9-0.4,11.6,3.6 c0.2,0.1,0.4,0.1,0.5,0.2c0-0.1,0-0.3-0.1-0.4c-3.3-2.8-6-4.4-8.4-4.6C52.2,189,51.3,189.1,50.5,189.3z M50.5,189.3 c0.8-0.4,1.9-0.7,3.3-0.7c2,0,3.9,0.6,5.3,1.5c1,0.6,2.1,1.8,2.4,3.6c0.2,0.2,0.4,0.4,0.6,0.5c-0.7-6.7-10.9-7.3-12.9-4.5 c0,0.1,0,0.1,0,0.1C49.7,189.7,50.1,189.5,50.5,189.3z M62.1,194.3c-0.2-0.2-0.4-0.4-0.6-0.5c0,0.1,0.1,0.3,0.1,0.4 c-0.2-0.1-0.4-0.1-0.5-0.2c0.4,0.3,0.7,0.6,1.1,1c0,0,0,0,0,0C62.2,194.7,62.2,194.5,62.1,194.3z M50.5,189.3 c-0.5,0.1-0.9,0.3-1.3,0.6c0-0.1,0-0.1,0-0.1c-0.2,0.3-0.3,0.6-0.3,1c0.2-0.2,0.4-0.3,0.6-0.4C49.7,190,50,189.6,50.5,189.3z M101.1,263.5l8.5,0.8v-0.5l-8.5-0.8L101.1,263.5z M86.3,262l10.8,1l0.1-0.5l-11.2-1.1l-2,10.9c0.2,0,0.3,0,0.5,0.1L86.3,262z M77.5,308.2l-3.3,18.4h0.5l3.3-18.5C77.9,308.2,77.7,308.2,77.5,308.2z M74.7,327.1h-0.5l-0.1,0.5h0.5L74.7,327.1z M110.1,264.3 l0.5,0c0-0.1,0-0.4,0-0.5l-0.5,0V264.3z M74.2,326.6l-0.1,0.5h0.5l0.1-0.5H74.2z M110.1,264.3v-0.5l-0.5,0v0.5L110.1,264.3z M150.2,316.3l-0.4-1.1l0,0.9L150.2,316.3z M150.2,309l0,0.6l0.5-0.4l0-0.6L150.2,309z M150.2,308h0.5l0-0.5h-0.5L150.2,308z M150.7,308.7l0-0.6h-0.5l-0.1,1L150.7,308.7z M136.7,267l0.1-0.5L122,265v0.5L136.7,267z M140.7,267.3l4.9,0.5h5.1l-9.9-1 L140.7,267.3z M150.7,268.3l1.4,0.1l0,0.4h0.5l0-0.5H150.7z M121.4,265.5V265l-0.5,0v0.5L121.4,265.5z M121.9,265.5V265l-0.5,0v0.5 L121.9,265.5z M150.7,267.8h-5.1l5.1,0.5h2l0-0.3L150.7,267.8z M152.1,280l0.2-4.6h-0.5l-0.2,4.6H152.1z M151.5,280.5l0,0.5h0.5 l0-0.5H151.5z M151.8,274.9h0.5l0-0.5h-0.5L151.8,274.9z M151.6,280l0,0.5h0.5l0-0.5H151.6z M152.3,275.4l0-0.5h-0.5l0,0.5H152.3z M151.5,292.2l0.2-4.6h-0.5l-0.2,4.6H151.5z M151.2,287.1h0.5l0-0.5h-0.5L151.2,287.1z M150.9,292.7l0,0.5h0.5l0-0.5H150.9z M151.7,287.6l0-0.5h-0.5l0,0.5H151.7z M151,292.2l0,0.5h0.5l0-0.5H151z M80.8,289.9l-3.1,17.3c0.2,0,0.3,0,0.5,0l3.1-17.5 C81.2,289.7,81,289.8,80.8,289.9z M77.7,307.6l-0.1,0.6c0.2,0,0.3,0,0.5,0l0.1-0.6C78,307.6,77.8,307.6,77.7,307.6z M77.7,307.2 l-0.1,0.5c0.2,0,0.3,0,0.5,0l0.1-0.5C78.1,307.2,77.9,307.2,77.7,307.2z M81,288.7c0.2-0.1,0.4-0.1,0.6-0.2l2.7-15 c-0.2,0-0.3,0-0.5-0.1L81,288.7z M84.3,273.5L84.3,273.5c-0.2-0.1-0.3-0.1-0.5-0.1l0,0C83.9,273.4,84.1,273.5,84.3,273.5z M84.4,272.5L84.4,272.5c-0.2-0.1-0.3-0.1-0.5-0.1l0,0C84.1,272.5,84.3,272.5,84.4,272.5z M80.9,289.3l-0.1,0.6 c0.2-0.1,0.4-0.1,0.5-0.2l0.1-0.6C81.3,289.2,81.1,289.2,80.9,289.3z M83.9,272.9c0.2,0,0.3,0,0.5,0.1l0.1-0.4c-0.2,0-0.3,0-0.5-0.1 L83.9,272.9z M81.6,288.5c-0.2,0.1-0.4,0.1-0.6,0.2l-0.1,0.5c0.2-0.1,0.4-0.1,0.5-0.2L81.6,288.5z M84.4,273L84.4,273 c-0.2-0.1-0.3-0.1-0.5-0.1l0,0.1C84,272.9,84.2,273,84.4,273z M83.8,273.4c0.2,0,0.3,0,0.5,0.1l0.1-0.4c-0.2,0-0.3,0-0.5-0.1 L83.8,273.4z M37.1,357l13.6,9.8c0.3,0.2,0.6,0.3,0.9,0.3c0.5,0,0.9-0.2,1.2-0.6c0.5-0.7,0.3-1.6-0.3-2.1l-11.9-8.5l12-8.5 c0.7-0.5,0.8-1.4,0.3-2.1c-0.5-0.7-1.4-0.8-2.1-0.4l-13.8,9.8c-0.4,0.3-0.6,0.7-0.6,1.2S36.7,356.7,37.1,357z M69.1,420.1H34.3 v-34.8h34.7V420.1z M68.6,385.9H34.8v33.8h33.7V385.9z M113.2,420.1H78.4v-34.8h34.8V420.1z M112.7,385.9H78.9v33.8h33.8V385.9z M140.6,409.9c2-1.7,4.3-3,6.9-3.7l3.9-1.1l0.3-0.6l-4.3,1.2c-2.6,0.7-5,2.1-7.1,3.8l-3.9,3.4c-0.2,0.2-0.2,0.5-0.1,0.7l4.2,6.1h0.6 l-4.4-6.4L140.6,409.9z M140.8,420.1l0.4,0.5h0.6l-0.4-0.5H140.8z M140.5,419.6l0.4,0.5h0.6l-0.4-0.5H140.5z M340,64.8 c0,0.1-0.6,1.2-0.1,2.3c0.3,0.6,0.8,1.1,1.5,1.4c0.1-0.3,0.1-0.5,0.1-0.5l0.1-0.2l0.4-0.1c-0.6-0.2-1-0.5-1.2-1 c-0.2-0.5,0-1.1,0-1.3l8.6-4.6c0,0-0.1,0-0.1,0l-0.9-0.4l2-1.2l-10.4,5.5L340,64.8z M343.6,72.3l0.4-0.1l0,0l8.5-1.9 c-0.1-0.1-0.2-0.2-0.2-0.2l-0.3-0.3l0.3-0.4c0,0,0,0,0-0.1l-8.7,1.9l0,0l-0.4,0.1l-0.1,0.2c0,0-0.1,0.2-0.2,0.5 c0.2,0.1,0.3,0.2,0.5,0.2L343.6,72.3z M342,68.7l7.5-2.8l2-0.7c-0.1-0.1-0.2-0.2-0.2-0.2l-0.2-0.2l0.1-0.3c0-0.1,0-0.2,0-0.2 l-9.2,3.4l0,0l-0.4,0.1l-0.1,0.2c0,0-0.1,0.2-0.1,0.5c0.1,0.1,0.3,0.1,0.5,0.2L342,68.7z M343.3,71.4l0.4-0.1c-0.6-0.2-1-0.5-1.2-1 c-0.3-0.7-0.1-1.4,0-1.8l7.1-2.7l-7.5,2.8l-0.2-0.1c-0.2-0.1-0.3-0.1-0.5-0.2c-0.1,0.5-0.2,1.4,0.1,2.3c0.3,0.6,0.8,1,1.4,1.3 c0.1-0.3,0.2-0.5,0.2-0.5L343.3,71.4z M343.7,71.3l8.7-1.9c0,0,0-0.1,0-0.1L343.7,71.3L343.7,71.3z M344,72.3L344,72.3l8.6-1.9 c0,0,0,0,0-0.1L344,72.3z M349.5,65.9l2-0.7l0,0L349.5,65.9z M342,67.7l9.2-3.4l0,0L342,67.7L342,67.7z M343.7,74.5 c-0.3-0.7,0-1.7,0.3-2.2l-0.4,0.1l-0.1,0c-0.2-0.1-0.4-0.1-0.5-0.2c-0.3,0.6-0.6,1.8-0.2,2.8c0.3,0.7,0.9,1.2,1.7,1.5l0.1,0l4.2-0.6 l1.9-1.3l-6,0.8C344.2,75.2,343.8,74.9,343.7,74.5z M351,75.5l-0.1-0.5l-1,0.6L351,75.5z M349.6,60.2c0,0,0.2,0.1,0.4,0.2L351,60 l0,0l-0.2-0.4L349.6,60.2z M352.3,69.4C352.3,69.4,352.3,69.4,352.3,69.4l-0.3,0.4l0.3,0.3c0,0,0.1,0.1,0.2,0.2l0.2,0l-0.2-0.9 L352.3,69.4z M352.5,69.4l0.2,0.9l0.1,0L352.5,69.4L352.5,69.4c-0.1,0-0.1,0-0.1,0L352.5,69.4z M350.7,74.5l-1.9,1.3l1.1-0.2l1-0.6 l-0.1-0.5L350.7,74.5z M352.6,70.4l0.1,0l0-0.1L352.6,70.4C352.5,70.3,352.5,70.3,352.6,70.4z M351.5,65.2l0.3-0.1l0,0L351.5,65.2 L351.5,65.2z M351.2,64.2c0,0.1,0,0.2,0,0.2l-0.1,0.3l0.2,0.2c0,0,0.1,0.1,0.2,0.2l0.3-0.1l-0.4-0.9L351.2,64.2z M351.5,64.1 l0.4,0.9l0,0L351.5,64.1l-0.3,0.1l0,0L351.5,64.1z M350.5,59.1l-2,1.2l0.9,0.4c0,0,0,0,0.1,0l0.5-0.3c-0.2-0.2-0.4-0.2-0.4-0.2 l1.1-0.7L350.5,59.1L350.5,59.1z M157.8,416.8v0.6c1.4,0.7,2.9,1.1,4.5,1.1h1.3l0.3-0.3l0.1-0.2h-1.7 C160.7,417.9,159.1,417.5,157.8,416.8z M156,415.6l-0.3-0.2c-2-1.8-3.1-4.3-3.1-6.9v-3.6c0,0,0-0.1,0-0.1l-0.5,1v2.7 c0,2.8,1.2,5.4,3.2,7.3l0.3,0.2c0.3,0.3,0.7,0.6,1.1,0.8v-0.6C156.5,416,156.3,415.8,156,415.6z M157.3,417.1 c0.2,0.1,0.3,0.2,0.5,0.3v-0.6c-0.2-0.1-0.3-0.2-0.5-0.3V417.1z M156.8,416.8c0.2,0.1,0.3,0.2,0.5,0.3v-0.6 c-0.2-0.1-0.3-0.2-0.5-0.3V416.8z M164.5,418l-0.2,0.5l0.1,0.6l0.2-0.2c0.1,0,0.1-0.1,0.1-0.2l0-0.1l0-0.1 C164.8,418.2,164.6,418,164.5,418z M152.3,404.3c-0.1,0-0.2,0-0.2,0l-0.3,0.1l-0.3,0.6l0.6-0.2L152.3,404.3z M163.9,417.9l-0.1,0.2 l-0.3,0.3h0.7l0.2-0.5c-0.1,0-0.1,0-0.2,0H163.9z M152.2,404.8v1l0.5-1c0-0.1-0.1-0.2-0.2-0.3c-0.1,0-0.1-0.1-0.2-0.1l-0.2,0.5 L152.2,404.8z M284.6,434.7l5.8-0.2c2-0.1,4-0.9,5.5-2.2c1.9-1.6,3-4,3-6.5l0-1.6c-0.2,0-0.4-0.1-0.4-0.3l0-0.1l-0.1,2 c-0.1,2.3-1.1,4.5-2.9,6.1c-1.5,1.3-3.3,2-5.2,2.1l-6.3,0.2l0.1,0.2L284.6,434.7z M298.8,423.3l0.2,0.5l1.8-0.2l0,0l0.5-0.1l0,0 c-0.1-0.2-0.3-0.4-0.5-0.4l-1.4,0.2l0,0l-0.4,0C298.9,423.2,298.9,423.2,298.8,423.3z M283.5,435.2l0.4,0.2l-0.1-0.7l-0.2-0.5 c-0.1,0-0.1,0.1-0.2,0.1c-0.1,0.1-0.1,0.3-0.1,0.4l0,0l0,0C283.3,435,283.4,435.1,283.5,435.2z M284.1,434.4l-0.1-0.2l-0.3,0 c-0.1,0-0.1,0-0.2,0l0.2,0.5l0.9,0L284.1,434.4z M298.5,423.7v0.1l0,0.1c0.1,0.2,0.2,0.3,0.4,0.3l0-0.5l1.8-0.2l0,0l-1.8,0.2 l-0.2-0.5C298.7,423.3,298.6,423.5,298.5,423.7z M239.8,43.5l-0.8,2.1c0.1,0,0.2,0.1,0.3,0.1C240.6,45.6,240.8,43.9,239.8,43.5z M239.3,43.4c-1.4,0-1.4,1.9-0.3,2.2l0.8-2.1C239.7,43.4,239.5,43.4,239.3,43.4z M211.1,125v0.6l2.6-1.9c0.2-0.2,0.3-0.5,0.1-0.7 c-0.1-0.2-0.4-0.2-0.6-0.1l0.2,0.4L211.1,125z M192.4,138.9l-1.9-2.7l-0.1,0.8l1.6,2.2c0.1,0.1,0.2,0.2,0.3,0.2c0,0,0.1,0,0.1,0 c0.1,0,0.2,0,0.3-0.1l18.4-13.7V125L192.4,138.9z M197.4,96.1l-0.9,0l-3.5,2.3l0,0.6L197.4,96.1z M199.6,95.3L199.6,95.3 c0.3-0.2,0.3-0.5,0.2-0.7s-0.5-0.3-0.7-0.1l-2.5,1.6l0.9,0l1.9-1.2L199.6,95.3z M192.5,99.4l0-0.6l-0.5,0.3l0,0.6L192.5,99.4z M193.1,98.4l-0.5,0.3l0,0.6l0.5-0.3L193.1,98.4z M190.5,136.1l-0.4,0.3l0.4,0.5L190.5,136.1L190.5,136.1z M315.7,422.3l1-0.1v-0.1 c0-0.1-0.1-0.3-0.2-0.4l-0.7,0.1c-0.1,0.1-0.1,0.2-0.1,0.3L315.7,422.3L315.7,422.3z M316.7,422.1v0.1l0.2,0c2.4-0.3,4.7-0.9,7-1.7 l12.5-4.9c2.7-1.1,5.9-0.5,8,1.5l2,1.9l-55.5,31.4l-2.8-4.9c-1.5-2.6-2.6-5.4-3.2-8.4l-0.3-1.3l-0.6-0.4l0.4,1.8 c0.6,3,1.8,5.9,3.3,8.5l3.1,5.3l56.6-32l-2.5-2.3c-2.3-2.2-5.6-2.8-8.5-1.6l-12.5,4.9c-2.2,0.9-4.5,1.4-6.8,1.7l-0.4,0 C316.7,421.8,316.7,421.9,316.7,422.1z M311.8,428c0.3,0,0.5-0.2,0.5-0.5v-4.8l-1,0.1v4.7C311.3,427.8,311.6,428,311.8,428z M316.2,426.9c0.3,0,0.5-0.2,0.5-0.5v-4.2l-1,0.1v4.1C315.7,426.7,316,426.9,316.2,426.9z M307.7,428.5c0.3,0,0.5-0.2,0.5-0.5v-4.8 l-1,0.1v4.7C307.2,428.3,307.4,428.5,307.7,428.5z M312.3,422.7v-0.5c0,0,0,0,0,0l-1,0.1v0.5L312.3,422.7z M312.3,422.7l3.4-0.4 v-0.2c0-0.1,0-0.2,0.1-0.3l-3.5,0.4c0,0,0,0,0,0L312.3,422.7L312.3,422.7z M307.2,423.3v-0.5l-5.9,0.7l0.1,0.5L307.2,423.3z M308.2,423.2l3.1-0.4v-0.5l-3.1,0.4c0,0,0,0,0,0.1V423.2z M308.2,423.2v-0.4c0,0,0,0,0-0.1l-1,0.1v0.5L308.2,423.2z M296,432.3 c-1.5,1.4-3.5,2.1-5.5,2.2l-5.8,0.2l0.8,0.5l5-0.2c2.2-0.1,4.2-0.9,5.9-2.3c2-1.7,3.1-4.2,3.2-6.8l0-1.7l-0.4,0c0,0,0,0-0.1,0l0,1.6 C298.9,428.3,297.8,430.6,296,432.3z M301.4,423.9l-0.1-0.5l-0.5,0.1l0.1,0.5L301.4,423.9z M284.4,435.2l0.2,0l-0.8-0.5l0.1,0.7 l0.6,0.4L284.4,435.2z M285.4,435.2l-0.8-0.5l-0.9,0l0.8,0.5L285.4,435.2z M299,424.2C299.1,424.2,299.1,424.2,299,424.2l0.5,0l0,0 l1.4-0.2l-0.1-0.5l-1.8,0.2L299,424.2z M167,436.1c0.4,2.5,2.6,4.4,5.2,4.4h6.2c4,0,7.5,2.8,8.3,6.7l0.5,2.3l-22.4,0.6 c-1.2,0-2.3-0.5-2.9-1.5l-9.1-13h-0.6l9.2,13.3c0.8,1.1,2,1.7,3.4,1.7l23-0.6l-0.6-2.9c-0.9-4.1-4.5-7.1-8.8-7.1h-6.2 c-2.3,0-4.3-1.7-4.7-4l-0.1-0.4h-0.5L167,436.1z M165.8,429.5L165.8,429.5l0.1,1h0c0.2,0,0.4-0.2,0.4-0.4l-0.1-0.4 C166.2,429.5,166,429.4,165.8,429.5z M165.2,426.1L165.2,426.1l0.6,3.4l0.1,0c0.2,0,0.4,0.1,0.5,0.2l-0.7-3.9 C165.6,425.9,165.4,426.1,165.2,426.1z M165.1,425.1L165.1,425.1l0.1,1h0c0.2,0,0.4-0.2,0.4-0.4l-0.1-0.4 C165.4,425.2,165.2,425.1,165.1,425.1z M164.3,421.1c0.2,0.1,0.3,0.2,0.3,0.4c0,0.2-0.1,0.3-0.2,0.5l0.6,3.1l0.1,0 c0.2,0,0.4,0.1,0.5,0.2l-1.1-6.3l-0.4,0.4L164.3,421.1z M158.8,421.8c-0.3,0-0.5,0.3-0.4,0.6c0,0.2,0.2,0.4,0.5,0.4c0,0,0,0,0.1,0 l5.2-0.7c0.1,0,0.2-0.1,0.2-0.1l-0.1-0.9c-0.1,0-0.1,0-0.2,0L158.8,421.8z M161.1,430.6c0,0.2,0.2,0.4,0.5,0.4c0,0,0,0,0.1,0 l4.3-0.6l-0.2-1l-4.3,0.6C161.2,430.1,161,430.3,161.1,430.6z M159.4,426.4c0,0.2,0.2,0.4,0.5,0.4c0,0,0,0,0.1,0l5.1-0.7l-0.2-1 l-5.1,0.7C159.6,425.9,159.4,426.1,159.4,426.4z M166,430.5L166,430.5l0.9,5.2h0.5l-1-5.6C166.3,430.3,166.2,430.4,166,430.5z M164.6,421.5c0-0.2-0.2-0.4-0.3-0.4l0.1,0.9C164.6,421.9,164.6,421.7,164.6,421.5z M142.4,420.6h-0.6l10.4,15h0.6L142.4,420.6z M141,410.2c1.9-1.7,4.2-2.9,6.7-3.6l3.5-1l0.3-0.6l-3.9,1.1c-2.5,0.7-4.9,2-6.9,3.7l-3.9,3.4l4.4,6.4h0.6l-4.3-6.3L141,410.2z M142,420.1h-0.6l0.4,0.5h0.6L142,420.1z M141.1,419.6l0.4,0.5h0.6l-0.4-0.5H141.1z M157.8,417.4v0.6c1.4,0.7,2.9,1,4.5,1h0.8 l0.5-0.5h-1.3C160.7,418.4,159.1,418.1,157.8,417.4z M155.4,415.7c-2.1-1.9-3.2-4.5-3.2-7.3v-2.7l-0.2,0.4l-0.3,1.2v1.1 c0,2.9,1.2,5.7,3.4,7.7l0.3,0.2c0.4,0.4,0.9,0.7,1.4,1v-0.6c-0.4-0.2-0.7-0.5-1.1-0.8L155.4,415.7z M157.3,417.6 c0.2,0.1,0.3,0.2,0.5,0.3v-0.6c-0.2-0.1-0.3-0.2-0.5-0.3V417.6z M156.8,416.8v0.6c0.2,0.1,0.3,0.2,0.5,0.3v-0.6 C157.1,417,156.9,416.9,156.8,416.8z M163.8,418.9L163.8,418.9l0.2,0.5l0.4-0.4l-0.1-0.6L163.8,418.9z M151.4,405l-0.3,0.6l0.5-0.1 v0.2l0.4-0.8L151.4,405z M163.1,418.9h0.7l0.5-0.5h-0.7L163.1,418.9z M152,406.1l0.2-0.4v-1l-0.1,0l-0.4,0.8v1.7L152,406.1z M101.1,263.5l0.1-0.5l-4-0.4l-0.1,0.5L101.1,263.5z M140.8,266.8l-4-0.4l-0.1,0.5l4,0.4L140.8,266.8z M149.4,313.8l0.4,1.3l0.3-5.5 l-0.5,0.4L149.4,313.8z M120.9,265.9v-0.5l-10.3-1c0,0.1,0,0.3,0,0.5L120.9,265.9z M149.7,307.5h0.5l0.7-14.3h-0.5L149.7,307.5z M147.7,350.3l-75.3-7.4l2.7-15.3h-0.5l-2.8,15.7l76.4,7.5l1.7-34.9l-0.5-0.4L147.7,350.3z M151.6,268.9l-0.3,5.5h0.5l0.3-5.6h-1.4 L151.6,268.9z M150.7,286.6h0.5l0.3-5.6H151L150.7,286.6z M109.6,264.8v-0.5l-8.5-0.8L101,264L109.6,264.8z M78.1,308.2l-3.3,18.5 h0.5l3.3-18.5C78.4,308.1,78.2,308.2,78.1,308.2z M86.3,262l-1.9,10.4c0.2,0,0.3,0,0.5,0.1l1.8-10l10.3,1l0.1-0.5L86.3,262z M110.6,264.9c0-0.2,0-0.4,0-0.5l-0.5,0v0.5L110.6,264.9z M75.2,327.1h-0.5l-0.1,0.5h0.5L75.2,327.1z M109.6,264.8l0.5,0v-0.5 l-0.5,0V264.8z M75.3,326.6h-0.5l-0.1,0.5h0.5L75.3,326.6z M150,308.5h-0.3l0,0.2L150,308.5z M149.3,315.6l0.5,0.4l0-0.9l-0.4-1.3 L149.3,315.6z M149.7,308h0.5l0-0.5h-0.5L149.7,308z M149.6,310.1l0.5-0.4l0-0.6l-0.5,0.4L149.6,310.1z M149.7,308.5h0.3l-0.3,0.2 l0,0.6l0.5-0.4l0.1-1h-0.5L149.7,308.5z M140.7,267.8h4.9l-4.9-0.5L140.7,267.8z M136.7,267.4l0.1-0.5l-14.8-1.5v0.5L136.7,267.4z M150.6,268.8h1.4l0-0.4l-1.4-0.1h-5.1L150.6,268.8z M121.4,266v-0.5l-0.5,0v0.5L121.4,266z M121.9,266v-0.5l-0.5,0v0.5L121.9,266z M140.7,267.8L140.7,267.8l4.9,0.5h5.1l-5.1-0.5H140.7z M151.6,280l0.2-4.6h-0.5l-0.2,4.6H151.6z M151,281h0.5l0-0.5H151L151,281z M151.3,274.9h0.5l0-0.5h-0.5L151.3,274.9z M151.3,275.4h0.5l0-0.5h-0.5L151.3,275.4z M151.1,280l0,0.5h0.5l0-0.5H151.1z M151,292.2 l0.2-4.6h-0.5l-0.2,4.6H151z M150.4,293.2h0.5l0-0.5h-0.5L150.4,293.2z M150.7,287.1h0.5l0-0.5h-0.5L150.7,287.1z M150.5,292.2 l0,0.5h0.5l0-0.5H150.5z M150.7,287.6h0.5l0-0.5h-0.5L150.7,287.6z M81.4,289.6l-3.1,17.5c0.2,0,0.3,0,0.5,0l3.2-17.7 C81.8,289.5,81.6,289.6,81.4,289.6z M78.2,307.6l-0.1,0.6c0.2,0,0.3,0,0.5,0l0.1-0.6C78.5,307.6,78.3,307.6,78.2,307.6z M78.2,307.1 l-0.1,0.5c0.2,0,0.3,0,0.5,0l0.1-0.5C78.6,307.1,78.4,307.1,78.2,307.1z M82.1,288.3l2.6-14.8c-0.2,0-0.3,0-0.5-0.1l-2.7,15 C81.8,288.5,81.9,288.4,82.1,288.3z M84.3,273.5c0.2,0,0.3,0,0.5,0.1l0-0.1C84.6,273.5,84.5,273.5,84.3,273.5L84.3,273.5z M84.4,272.5c0.2,0,0.3,0,0.5,0.1l0-0.1C84.8,272.5,84.6,272.5,84.4,272.5L84.4,272.5z M81.4,289.6c0.2-0.1,0.4-0.1,0.6-0.2l0.1-0.6 c-0.2,0.1-0.4,0.2-0.6,0.2L81.4,289.6z M84.9,273l0.1-0.4c-0.2,0-0.3,0-0.5-0.1l-0.1,0.4C84.5,272.9,84.7,273,84.9,273z M81.5,289.1 c0.2-0.1,0.4-0.1,0.6-0.2l0.1-0.6c-0.2,0.1-0.4,0.2-0.6,0.2L81.5,289.1z M84.4,273c0.2,0,0.3,0,0.5,0.1l0-0.1 C84.7,273,84.6,272.9,84.4,273L84.4,273z M84.8,273.5l0.1-0.4c-0.2,0-0.3,0-0.5-0.1l-0.1,0.4C84.4,273.5,84.6,273.5,84.8,273.5z M101.1,263.5l-4-0.4l-0.1,0.5l4,0.4L101.1,263.5z M136.7,267l-0.1,0.5l3.8,0.4h0.2l0.1-0.5L136.7,267z M140.7,267.8L140.7,267.8 l-0.2,0L140.7,267.8z M114.8,239l0.5-5.3L114.8,239l0.3-0.1l0.1,0.6c0,0,0,0,0,0.1l0.6-5.8c0-0.3-0.2-0.5-0.4-0.6 c-0.3,0-0.5,0.2-0.6,0.4l-0.6,5.6c0.1,0,0.2-0.1,0.3-0.1L114.8,239z M120.4,241.2l0.6-5.6L120.4,241.2L120.4,241.2l0.3,0.3 c0,0,0.1,0.1,0.1,0.1l0.6-6c0-0.3-0.2-0.5-0.4-0.6c-0.3,0-0.5,0.2-0.6,0.4l-0.6,5.9c0.1,0,0.2-0.1,0.2-0.1L120.4,241.2z M126.4,235.6c-0.3,0-0.5,0.2-0.5,0.5l-0.3,6.1c0.1,0,0.1-0.1,0.2-0.1l0.3-0.2l0.1,0l0.3-5.8l-0.3,5.8l0.3,0.2c0,0,0.1,0.1,0.2,0.1 l0.3-6.1C126.9,235.9,126.7,235.6,126.4,235.6z M176.7,116.2l-0.4,0.3l13.2,19l0,0l0.1-0.7L176.7,116.2z M189.6,135.6l0.4-0.3 l-0.3-0.5L189.6,135.6z M114.3,239.8c0.1,0.2,0.2,0.3,0.4,0.3c0,0,0,0,0.1,0c0.1,0,0.1,0,0.2,0c-0.1-0.3-0.2-0.5-0.2-0.5 C114.6,239.7,114.4,239.7,114.3,239.8z M125.6,242.8c0.1,0.1,0.2,0.2,0.4,0.2c0,0,0,0,0,0c0.2,0,0.3-0.1,0.4-0.2 c-0.3-0.1-0.4-0.2-0.4-0.2C125.9,242.6,125.7,242.7,125.6,242.8z M176.4,115.8l-0.3-0.4l-0.4,0.3l0.3,0.4L176.4,115.8z M119.9,242 c0.1,0.1,0.2,0.3,0.4,0.3c0,0,0,0,0.1,0c0.1,0,0.2-0.1,0.3-0.1c-0.2-0.2-0.3-0.4-0.3-0.4C120.2,241.9,120,241.9,119.9,242z M189.8,136l0.2,0.3l0-0.4L189.8,136z M190.5,136.1l-0.3-0.4l-0.2,0.1l0,0.4l0.1,0.1L190.5,136.1z M176.7,116.2l-0.3-0.4l-0.4,0.3 l0.3,0.4L176.7,116.2z M126,241.9l0,0.6L126,241.9L126,241.9l-0.4,0.2c-0.1,0.1-0.1,0.1-0.2,0.1l0,0.2c0,0.1,0,0.2,0.1,0.3 c0.1-0.1,0.3-0.2,0.4-0.3c0,0,0.2,0.1,0.4,0.2c0-0.1,0.1-0.1,0.1-0.2l0-0.3c-0.1-0.1-0.2-0.1-0.2-0.1L126,241.9z M115.3,239.6 L115.3,239.6c0-0.1,0-0.2,0-0.2l-0.1-0.6l-0.3,0.1l-0.1,0.6l0.1-0.6l-0.2,0.1c-0.1,0-0.2,0.1-0.3,0.1l0,0.3c0,0.1,0,0.1,0,0.2 c0.2-0.1,0.3-0.1,0.5-0.2c0,0,0,0.2,0.2,0.5C115.1,240,115.2,239.9,115.3,239.6z M120.8,241.9l0-0.2c-0.1-0.1-0.1-0.1-0.1-0.1 l-0.3-0.4l-0.1,0l-0.1,0.6l0.1-0.6l-0.3,0.2c-0.1,0-0.2,0.1-0.2,0.1l0,0.3c0,0.1,0,0.2,0.1,0.3c0.2-0.1,0.3-0.1,0.4-0.2 c0,0,0.1,0.2,0.3,0.4C120.7,242.1,120.8,242,120.8,241.9z M189.6,135.6L189.6,135.6L189.6,135.6L189.6,135.6z M190.1,135.5l-0.1-0.2 l-0.4,0.3v0.1l0.3,0.4l0.2-0.2L190.1,135.5z M190.1,135.8l0.2-0.1l-0.1-0.2L190.1,135.8z M174.3,111.9l17.7-11.6l0-0.6l-18.4,12.1 l2.5,3.6l0.4-0.3L174.3,111.9z M211.1,124.3v0.6l2.2-1.7l-0.2-0.4c0,0-0.1,0-0.1,0L211.1,124.3z M190.5,136.1l1.9,2.7l18.6-13.9 v-0.6l-18.5,13.8l-1.6-2.4L190.5,136.1L190.5,136.1z M197.4,96.1l-4.4,2.9l0,0.6l5.3-3.5L197.4,96.1z M199.6,95.3l-0.2-0.4l-1.9,1.2 l0.9,0L199.6,95.3z M192.5,100l0-0.6l-0.5,0.3l0,0.6L192.5,100z M190.6,136.1L190.6,136.1L190.6,136.1L190.6,136.1z M193,99.7l0-0.6 l-0.5,0.3l0,0.6L193,99.7z M189.7,134l-12.6-18.1l-0.4,0.3l12.9,18.6L189.7,134z M190.1,134.7l-0.5-0.7l-0.1,0.8l0.3,0.5l0.1-0.1 L190.1,134.7z M190.1,135.2l0.2-0.2l-0.2-0.3L190.1,135.2z M176.5,115.1l-0.4,0.3l0.3,0.4l0.4-0.3L176.5,115.1z M190.6,135.4l0,0.6 l0.4-0.3L190.6,135.4L190.6,135.4z M190.6,135.4l-0.4,0.3l0.3,0.4l0,0L190.6,135.4z M177.1,115.9l-0.3-0.4l-0.4,0.3l0.3,0.4 L177.1,115.9z M190.6,135.3l0,0.1L190.6,135.3L190.6,135.3z M189.9,135.3l0.1,0.2l0-0.3L189.9,135.3z M190.6,135.3l-0.2-0.3 l-0.2,0.2l0,0.3l0.1,0.2l0.4-0.3L190.6,135.3z" fill="#231a1a"/></g></svg>