<?xml version="1.0" encoding="UTF-8" standalone="no"?><svg xmlns="http://www.w3.org/2000/svg" xmlns:xlink="http://www.w3.org/1999/xlink" fill="#000000" height="69" preserveAspectRatio="xMidYMid meet" version="1" viewBox="0.0 0.0 100.0 69.0" width="100" zoomAndPan="magnify"><g id="change1_1"><path d="M42.939,15.978c-4.968,0.136-8.919,0.932-11.861,2.4c-2.942,1.474-5.262,3.774-6.962,6.914 c6.796,0,12.435,1.664,16.913,4.996c4.476,3.334,6.714,8.76,6.714,16.274c0,2.81-0.489,5.555-1.47,8.237 c-0.981,2.677-2.486,5.048-4.513,7.105c-2.025,2.059-4.476,3.759-7.352,5.099c-2.875,1.342-6.173,2.007-9.898,2.007 c-7.388,0-13.318-2.4-17.794-7.202C2.24,57.007,0,50.585,0,42.55c0-4.444,0.638-8.937,1.913-13.48 c1.273-4.54,3.544-8.758,6.814-12.647c3.268-3.887,7.677-7.303,13.233-10.241C27.513,3.237,34.51,1.177,42.939,0V15.978z M95.193,15.978c-4.971,0.136-8.922,0.932-11.863,2.4c-2.939,1.474-5.293,3.774-7.057,6.917c6.861,0,12.531,1.664,17.008,4.995 c4.476,3.334,6.719,8.76,6.719,16.275c0,2.81-0.507,5.554-1.52,8.236c-1.017,2.677-2.52,5.048-4.515,7.106 c-1.991,2.059-4.425,3.759-7.3,5.098c-2.881,1.343-6.21,2.009-9.999,2.009c-7.321,0-13.235-2.402-17.743-7.203 c-4.514-4.805-6.768-11.227-6.768-19.265c0-4.444,0.635-8.937,1.91-13.48c1.274-4.543,3.562-8.758,6.861-12.647 c3.299-3.887,7.729-7.303,13.285-10.241C79.766,3.237,86.759,1.177,95.193,0V15.978z" fill="#3f2182"/></g></svg>