<?xml version="1.0" encoding="UTF-8"?><svg xmlns="http://www.w3.org/2000/svg" xmlns:xlink="http://www.w3.org/1999/xlink" height="206.8" preserveAspectRatio="xMidYMid meet" version="1.0" viewBox="25.2 24.6 207.0 206.8" width="207.0" zoomAndPan="magnify"><g fill="black" id="change1_1"><path d="M 230.652344 86.472656 C 228.96875 88.097656 218.441406 84.847656 206.171875 78.351562 C 205.328125 77.511719 204.539062 77.511719 203.699219 76.730469 L 162.984375 92.179688 L 159.738281 91.40625 L 189.871094 69.390625 C 181.753906 63.675781 171.945312 58.03125 166.230469 53.871094 L 152.335938 62.050781 L 151.554688 61.277344 L 162.984375 50.621094 C 162.140625 49.84375 162.140625 49.84375 162.140625 49.0625 C 162.140625 49.0625 162.984375 49.0625 163.828125 49.0625 L 166.230469 34.386719 L 167.007812 34.386719 L 168.699219 50.621094 C 174.414062 53.089844 185 57.179688 194.742188 62.050781 L 195.585938 24.585938 L 198.832031 26.203125 L 207.789062 68.546875 C 208.636719 69.390625 210.261719 70.234375 211.035156 70.234375 C 222.472656 76.730469 232.214844 84.003906 230.652344 86.472656" fill="inherit" fill-rule="evenodd"/><path d="M 211.035156 70.234375 C 210.261719 70.234375 208.636719 69.390625 207.789062 68.546875 L 198.832031 26.203125 L 195.585938 24.585938 L 194.742188 62.050781 C 185 57.179688 174.414062 53.089844 168.699219 50.621094 L 167.007812 34.386719 L 166.230469 34.386719 L 163.828125 49.0625 C 162.984375 49.0625 162.140625 49.0625 162.140625 49.0625 C 162.140625 49.84375 162.140625 49.84375 162.984375 50.621094 L 151.554688 61.277344 L 152.335938 62.050781 L 166.230469 53.871094 C 171.945312 58.03125 181.753906 63.675781 189.871094 69.390625 L 159.738281 91.40625 L 162.984375 92.179688 L 203.699219 76.730469 C 204.539062 77.511719 205.328125 77.511719 206.171875 78.351562 C 218.441406 84.847656 228.96875 88.097656 230.652344 86.472656 C 232.214844 84.003906 222.472656 76.730469 211.035156 70.234375" fill="inherit"/><path d="M 158.738281 41.789062 L 151.488281 52.867188 C 145.945312 51.664062 139.078125 50.621094 135.257812 50.621094 C 80.640625 50.621094 37.453125 94.652344 37.453125 148.296875 C 37.453125 183.363281 57.84375 212.644531 83.105469 231.414062 C 48.882812 231.414062 25.183594 178.484375 25.183594 148.296875 C 25.183594 88.097656 74.144531 38.414062 135.257812 38.414062 C 140.519531 38.414062 151.011719 40.550781 158.738281 41.789062" fill="inherit" fill-rule="evenodd"/><path d="M 205.328125 129.589844 L 205.328125 128.808594 C 206.171875 129.589844 206.171875 129.589844 206.171875 130.433594 Z M 68.429688 106.011719 L 68.429688 107.636719 L 65.183594 110.886719 C 65.964844 109.261719 67.652344 107.636719 68.429688 106.011719 Z M 198.832031 115.816406 L 198.832031 112.570312 L 199.675781 112.570312 C 200.519531 113.351562 200.519531 114.132812 201.300781 115.816406 Z M 208.636719 115.816406 C 208.636719 115.816406 207.789062 114.976562 207.789062 114.132812 C 204.539062 106.011719 198.832031 97.058594 192.335938 90.492188 L 191.558594 89.714844 C 191.105469 89.277344 190.714844 88.84375 190.347656 88.425781 L 177.210938 93.414062 L 175.976562 94.652344 L 176.816406 96.210938 L 178.441406 96.210938 L 179.21875 99.457031 L 182.53125 97.898438 L 183.375 101.921875 L 181.753906 101.921875 L 179.21875 101.148438 L 176.816406 101.921875 L 173.570312 105.171875 L 170.253906 106.011719 L 169.480469 109.261719 L 171.105469 110.105469 L 170.253906 111.664062 L 167.007812 110.886719 L 162.984375 111.664062 L 162.984375 118.222656 L 165.449219 119.066406 L 171.105469 119.066406 L 171.945312 117.378906 L 175.195312 112.570312 L 177.660156 112.570312 L 180.066406 110.886719 L 180.90625 112.570312 L 186.621094 115.816406 L 185.78125 117.378906 L 183.375 117.378906 L 184.148438 118.222656 L 185.78125 119.066406 L 187.398438 118.222656 L 187.398438 115.816406 L 189.027344 114.976562 L 188.246094 114.132812 L 184.148438 112.570312 L 183.375 109.261719 L 185.78125 109.261719 L 187.398438 110.105469 L 189.871094 113.351562 L 189.871094 115.816406 L 193.117188 119.066406 L 193.960938 114.976562 L 196.367188 114.132812 L 196.367188 117.378906 L 198.832031 119.066406 L 202.078125 119.066406 C 202.921875 121.472656 203.699219 123.09375 204.539062 124.71875 L 204.539062 125.5625 L 198.050781 125.5625 L 194.742188 123.09375 L 190.714844 123.09375 L 190.714844 125.5625 L 189.871094 125.5625 L 188.246094 124.71875 L 181.753906 123.09375 L 181.753906 119.066406 L 172.796875 119.066406 L 170.253906 120.628906 L 165.449219 120.628906 L 161.292969 123.09375 L 161.292969 127.121094 L 152.335938 132.835938 L 153.179688 135.304688 L 155.644531 135.304688 L 154.863281 137.769531 L 153.179688 138.546875 L 153.179688 145.046875 L 160.519531 153.226562 L 163.828125 153.226562 L 163.828125 152.445312 L 169.480469 152.445312 L 171.105469 150.761719 L 174.414062 150.761719 L 175.976562 152.445312 L 180.90625 153.226562 L 180.066406 159.722656 L 185.78125 168.6875 L 183.375 174.394531 L 183.375 176.867188 L 185 178.484375 L 185 184.984375 L 188.246094 189.078125 L 188.246094 193.878906 L 190.714844 193.878906 C 176.816406 211.023438 155.644531 221.609375 132.007812 221.609375 C 90.378906 221.609375 57.003906 188.226562 57.003906 146.734375 C 57.003906 136.085938 59.46875 125.5625 62.71875 116.597656 L 62.71875 121.472656 L 65.964844 123.09375 L 65.964844 128.808594 L 69.210938 133.679688 L 70.898438 134.523438 L 71.679688 132.058594 L 69.210938 128.027344 L 68.429688 123.941406 L 70.054688 123.941406 L 70.898438 128.027344 L 74.925781 134.523438 L 74.144531 136.085938 L 76.617188 140.242188 L 83.105469 141.800781 L 83.105469 141.019531 L 85.574219 141.019531 L 85.574219 142.640625 L 87.199219 143.484375 L 90.378906 144.265625 L 95.316406 149.199219 L 101.03125 149.980469 L 101.8125 154.847656 L 97.785156 157.25 L 97.785156 161.339844 L 96.941406 163.746094 L 102.65625 171.152344 L 102.65625 173.617188 L 105.121094 173.617188 L 109.992188 177.640625 L 109.992188 189.851562 L 111.679688 190.632812 L 109.992188 196.347656 L 113.242188 200.4375 L 112.46875 206.152344 L 115.707031 211.804688 L 120.640625 215.894531 L 125.449219 216.738281 L 125.449219 215.113281 L 122.203125 211.804688 L 122.203125 211.023438 L 123.046875 208.554688 L 123.046875 206.933594 L 120.640625 206.933594 L 119.796875 205.308594 L 121.421875 203.683594 L 121.421875 202.84375 L 119.796875 202.066406 L 119.796875 201.28125 L 123.046875 200.4375 L 127.066406 198.03125 L 128.761719 195.566406 L 133.632812 189.851562 L 132.007812 184.136719 L 133.632812 182.582031 L 137.722656 182.582031 L 140.96875 180.113281 L 141.8125 171.152344 L 145 167.0625 L 145.902344 163.746094 L 142.59375 162.972656 L 140.96875 159.722656 L 134.414062 159.722656 L 128.761719 158.160156 L 128.761719 154.003906 L 127.066406 151.605469 L 122.203125 151.605469 L 119.796875 146.734375 L 117.332031 145.890625 L 116.488281 146.734375 L 112.46875 146.734375 L 110.835938 145.046875 L 105.902344 144.265625 L 102.65625 148.296875 L 96.164062 147.515625 L 96.164062 141.019531 L 91.226562 140.242188 L 92.851562 136.085938 L 92.851562 134.523438 L 87.199219 138.546875 L 83.105469 137.769531 L 82.265625 135.304688 L 83.105469 132.058594 L 84.730469 128.808594 L 89.601562 126.34375 L 98.566406 126.34375 L 97.785156 128.808594 L 101.8125 130.433594 L 101.03125 125.5625 L 103.496094 123.941406 L 108.367188 120.628906 L 108.367188 118.222656 L 113.242188 113.351562 L 118.113281 110.886719 L 118.113281 110.105469 L 120.640625 107.636719 L 122.203125 107.636719 L 123.046875 108.417969 L 123.890625 106.863281 L 123.046875 106.863281 L 121.421875 106.011719 L 121.421875 104.394531 L 124.671875 104.394531 L 125.449219 106.011719 L 126.292969 106.011719 L 128.761719 105.171875 L 129.609375 104.394531 L 130.382812 104.394531 L 130.382812 106.011719 L 129.609375 106.863281 L 129.609375 108.417969 L 133.632812 109.261719 L 134.414062 109.261719 L 134.414062 107.636719 L 131.164062 106.011719 L 131.164062 105.171875 L 133.632812 103.613281 L 133.632812 101.148438 L 131.164062 99.457031 L 130.382812 95.425781 L 127.066406 97.058594 L 125.449219 97.058594 L 125.449219 93.808594 L 120.640625 92.179688 L 118.113281 93.808594 L 118.113281 99.457031 L 114.085938 100.367188 L 112.46875 103.613281 L 110.835938 104.394531 L 110.835938 99.457031 L 107.519531 99.457031 L 105.121094 97.898438 L 104.277344 95.425781 L 111.679688 91.40625 L 114.085938 90.492188 L 114.925781 92.179688 L 116.488281 92.179688 L 116.488281 91.40625 L 118.953125 91.40625 L 118.953125 90.492188 L 118.113281 90.492188 L 118.113281 88.9375 L 119.796875 88.9375 L 121.421875 87.3125 L 122.203125 87.3125 L 127.066406 86.472656 L 129.609375 88.097656 L 123.890625 91.40625 L 130.382812 92.960938 L 132.007812 90.492188 L 135.257812 90.492188 L 136.035156 88.097656 L 133.632812 88.097656 L 133.632812 85.691406 L 126.292969 82.441406 L 121.421875 82.441406 L 118.953125 84.003906 L 119.796875 87.3125 L 116.488281 87.3125 L 115.707031 85.691406 L 118.953125 82.441406 L 114.085938 82.441406 L 112.46875 83.222656 L 111.679688 84.847656 L 113.242188 84.847656 L 113.242188 86.472656 L 109.992188 86.472656 L 109.148438 88.097656 L 105.121094 88.097656 L 104.277344 85.691406 L 108.367188 85.691406 L 110.835938 83.222656 L 109.148438 82.441406 L 107.519531 84.003906 L 104.277344 84.003906 L 101.8125 80.757812 L 97.785156 80.757812 L 92.851562 84.847656 L 97.785156 84.847656 L 97.785156 85.691406 L 96.941406 86.472656 L 101.03125 86.472656 L 101.8125 88.097656 L 96.941406 88.097656 L 96.941406 87.3125 L 92.851562 86.472656 L 92.070312 85.691406 L 87.976562 85.691406 C 100.1875 75.949219 115.707031 71.015625 132.007812 71.015625 C 144.335938 71.015625 155.957031 74.183594 166.355469 78.898438 L 172.144531 74.664062 C 166.664062 71.851562 160.902344 69.496094 154.855469 67.765625 C 152.453125 67.078125 150.011719 66.488281 147.527344 66.011719 C 142.53125 65.046875 137.355469 64.519531 132.007812 64.519531 C 110.835938 64.519531 91.226562 72.632812 76.617188 86.472656 C 73.300781 88.9375 70.054688 92.179688 66.804688 96.210938 C 56.226562 110.105469 49.730469 127.121094 49.730469 146.734375 C 49.730469 191.476562 86.355469 228.105469 132.007812 228.105469 C 163.828125 228.105469 191.558594 210.242188 205.328125 184.136719 C 207.789062 178.484375 210.261719 171.925781 211.886719 165.4375 C 212.730469 163.746094 212.730469 162.191406 212.730469 160.566406 C 213.507812 156.476562 214.289062 151.605469 214.289062 146.734375 C 214.289062 145.890625 214.289062 145.890625 214.289062 145.890625 L 214.289062 138.546875 C 213.507812 130.433594 211.886719 123.09375 208.636719 115.816406" fill="inherit" fill-rule="evenodd"/></g></svg>