<svg width="12" height="12" viewBox="0 0 12 12" fill="none" xmlns="http://www.w3.org/2000/svg">
<g clip-path="url(#clip0_58_6)">
<path d="M6 2.8125C4.25524 2.8125 2.8125 4.25524 2.8125 6C2.8125 7.74476 4.25524 9.1875 6 9.1875C7.74476 9.1875 9.1875 7.74476 9.1875 6C9.1875 4.25524 7.74476 2.8125 6 2.8125ZM6.35156 8.44884V3.55116C7.54102 3.72359 8.48438 4.76355 8.48438 6C8.48438 7.23645 7.54102 8.27641 6.35156 8.44884Z" fill="white"/>
<path d="M6 0C5.80568 0 5.64844 0.157242 5.64844 0.351562V1.75781C5.64844 1.95213 5.80568 2.10938 6 2.10938C6.19432 2.10938 6.35156 1.95213 6.35156 1.75781V0.351562C6.35156 0.157242 6.19432 0 6 0Z" fill="white"/>
<path d="M6 9.89062C5.80568 9.89062 5.64844 10.0479 5.64844 10.2422V11.6484C5.64844 11.8428 5.80568 12 6 12C6.19432 12 6.35156 11.8428 6.35156 11.6484V10.2422C6.35156 10.0479 6.19432 9.89062 6 9.89062Z" fill="white"/>
<path d="M1.75781 5.64844H0.351562C0.157242 5.64844 0 5.80568 0 6C0 6.19432 0.157242 6.35156 0.351562 6.35156H1.75781C1.95213 6.35156 2.10938 6.19432 2.10938 6C2.10938 5.80568 1.95213 5.64844 1.75781 5.64844Z" fill="white"/>
<path d="M11.6484 5.64844H10.2422C10.0479 5.64844 9.89062 5.80568 9.89062 6C9.89062 6.19432 10.0479 6.35156 10.2422 6.35156H11.6484C11.8428 6.35156 12 6.19432 12 6C12 5.80568 11.8428 5.64844 11.6484 5.64844Z" fill="white"/>
<path d="M3.24201 8.75802C3.10468 8.6207 2.88219 8.6207 2.74487 8.75802L1.75026 9.75229C1.61291 9.88961 1.61291 10.1121 1.75026 10.2494C1.88758 10.3867 2.11007 10.3867 2.24739 10.2494L3.24201 9.25515C3.37933 9.11783 3.37933 8.89534 3.24201 8.75802Z" fill="white"/>
<path d="M10.2494 1.75057C10.1121 1.61325 9.88961 1.61325 9.75229 1.75057L8.75802 2.74484C8.6207 2.88216 8.6207 3.10465 8.75802 3.24197C8.89534 3.37929 9.11783 3.37929 9.25515 3.24197L10.2494 2.24771C10.3867 2.11039 10.3867 1.88792 10.2494 1.75057Z" fill="white"/>
<path d="M10.2494 9.75229L9.25515 8.75802C9.11783 8.6207 8.89534 8.6207 8.75802 8.75802C8.6207 8.89534 8.6207 9.11783 8.75802 9.25515L9.75229 10.2494C9.88961 10.3867 10.1121 10.3867 10.2494 10.2494C10.3867 10.1121 10.3867 9.88961 10.2494 9.75229Z" fill="white"/>
<path d="M3.24202 2.74484L2.2474 1.75057C2.11006 1.61325 1.88759 1.61325 1.75027 1.75057C1.61295 1.88789 1.61295 2.11039 1.75027 2.24771L2.74489 3.24197C2.88221 3.37929 3.1047 3.37929 3.24202 3.24197C3.37934 3.10465 3.37934 2.88216 3.24202 2.74484Z" fill="white"/>
</g>
<defs>
<clipPath id="clip0_58_6">
<rect width="12" height="12" fill="white"/>
</clipPath>
</defs>
</svg>
