<svg width="69" height="56" viewBox="0 0 69 56" fill="none" xmlns="http://www.w3.org/2000/svg">
<path d="M4.36653 51.7791C2.93807 50.4115 1.811 48.7561 1.05861 46.9205C0.306225 45.0849 -0.0546588 43.1101 -0.000564219 41.1247C0.0176475 38.6924 0.416666 36.2783 1.18175 33.9716C2.34983 30.5871 3.71925 27.2766 5.28256 24.0583L16.9352 0H31.6768L24.0291 28.6444C26.1294 30.0015 27.8511 31.8769 29.031 34.093C30.211 36.309 30.81 38.7923 30.7714 41.3073C30.8107 43.2726 30.4328 45.2238 29.6631 47.0298C28.8933 48.8359 27.7496 50.4552 26.3085 51.7791C23.3322 54.5942 19.3742 56.1111 15.2949 56C13.287 56.0601 11.2873 55.7179 9.41138 54.9934C7.53552 54.2689 5.82081 53.1764 4.36653 51.7791ZM41.6466 51.7791C40.2146 50.4137 39.0844 48.7589 38.3301 46.9229C37.5757 45.087 37.2141 43.1112 37.2688 41.1247C37.287 38.6924 37.686 36.2783 38.4511 33.9716C39.6239 30.5889 40.9932 27.2787 42.5519 24.0583L54.2046 0H69.0101L61.3624 28.6444C63.4592 30.0042 65.1778 31.8806 66.3556 34.0962C67.5335 36.3118 68.1318 38.7937 68.0941 41.3073C68.1333 43.2726 67.7554 45.2238 66.9857 47.0298C66.216 48.8359 65.0722 50.4552 63.6311 51.7791C60.6548 54.5942 56.6969 56.1111 52.6175 56C50.6111 56.061 48.6127 55.7193 46.7384 54.9947C44.8642 54.2701 43.1515 53.177 41.6998 51.7791H41.6466Z" fill="#66CC66"/>
</svg>
