<svg width="20" height="17" viewBox="0 0 20 17" fill="none" xmlns="http://www.w3.org/2000/svg">
<g clip-path="url(#clip0_589_824)">
<path d="M0.401503 16.6666L3.47501 4.74909L4.4104 8.78132C3.25436 8.8004 2.13624 8.36663 1.29237 7.57166C0.859849 7.16796 0.520169 6.67414 0.297053 6.12471C0.0739372 5.57528 -0.0272381 4.98349 0.000610975 4.39066C0.000610975 3.20241 0.46992 2.06283 1.30527 1.22262C2.14062 0.382399 3.27359 -0.0896267 4.45495 -0.0896267C5.02659 -0.113221 5.59663 -0.0134749 6.12676 0.202902C6.65689 0.419279 7.13482 0.747268 7.52846 1.16485C7.94251 1.57106 8.26738 2.05996 8.48219 2.60011C8.697 3.14026 8.79698 3.71967 8.77567 4.30103C8.79778 4.70395 8.79778 5.10781 8.77567 5.51073C8.70516 5.99537 8.60097 6.47444 8.46387 6.94442C8.2857 7.45219 8.01843 8.12422 7.66209 8.96054L4.90038 16.577L0.401503 16.6666ZM11.7156 16.6666L14.8336 4.74909L15.7244 8.78132C14.5684 8.8004 13.4503 8.36663 12.6064 7.57166C12.1819 7.16389 11.8506 6.66826 11.6352 6.11903C11.4199 5.56981 11.3257 4.98009 11.3592 4.39066C11.3316 3.80187 11.4284 3.21388 11.6434 2.66553C11.8584 2.11719 12.1866 1.62098 12.6064 1.20966C13.4391 0.425467 14.5392 -0.00752839 15.6799 -3.5964e-05C16.2576 -0.018709 16.8328 0.0831216 17.3694 0.299021C17.9061 0.514921 18.3924 0.840208 18.7979 1.25444C19.5883 2.10322 20.0196 3.22788 20.0006 4.39066C20.0447 4.79266 20.0447 5.19832 20.0006 5.60032C19.9516 6.08865 19.847 6.56971 19.6888 7.03401C19.4759 7.72042 19.2231 8.39364 18.9316 9.05016L16.1253 16.6666H11.7156Z" fill="white"/>
</g>
<defs>
<clipPath id="clip0_589_824">
<rect width="20" height="16.6667" fill="white"/>
</clipPath>
</defs>
</svg>
