<svg width="45" height="36" viewBox="0 0 45 36" fill="none" xmlns="http://www.w3.org/2000/svg">
<g clip-path="url(#clip0_570_332)">
<path d="M2.84765 33.2865C1.91604 32.4074 1.18101 31.3432 0.690316 30.1631C0.199627 28.9831 -0.035732 27.7137 -0.000452887 26.4373C0.0114243 24.8737 0.271654 23.3218 0.770619 21.8389C1.53241 19.6631 2.42552 17.535 3.44506 15.4661L11.0446 0H20.6587L15.6711 18.4143C17.0408 19.2866 18.1637 20.4923 18.9332 21.9169C19.7027 23.3415 20.0934 24.9379 20.0682 26.5547C20.0938 27.8181 19.8474 29.0724 19.3454 30.2335C18.8434 31.3945 18.0975 32.4355 17.1576 33.2865C15.2166 35.0963 12.6353 36.0714 9.97485 36C8.66536 36.0386 7.36117 35.8187 6.13777 35.3529C4.91438 34.8871 3.7961 34.1848 2.84765 33.2865ZM27.1607 33.2865C26.2268 32.4088 25.4898 31.345 24.9978 30.1647C24.5058 28.9845 24.27 27.7143 24.3057 26.4373C24.3175 24.8737 24.5778 23.3218 25.0767 21.8389C25.8416 19.6643 26.7346 17.5363 27.7512 15.4661L35.3507 0H45.0065L40.0188 18.4143C41.3864 19.2884 42.5072 20.4946 43.2753 21.919C44.0435 23.3433 44.4337 24.9388 44.4091 26.5547C44.4347 27.8181 44.1882 29.0724 43.6862 30.2335C43.1842 31.3945 42.4383 32.4355 41.4985 33.2865C39.5574 35.0963 36.9761 36.0714 34.3157 36C33.0072 36.0392 31.7039 35.8195 30.4815 35.3537C29.2592 34.8879 28.1422 34.1852 27.1954 33.2865H27.1607Z" fill="#0974E4"/>
</g>
<defs>
<clipPath id="clip0_570_332">
<rect width="45" height="36" fill="white"/>
</clipPath>
</defs>
</svg>
