<svg width="15" height="12" viewBox="0 0 15 12" fill="none" xmlns="http://www.w3.org/2000/svg">
<g clip-path="url(#clip0_508_178)">
<path d="M0.948566 11.0955C0.63803 10.8025 0.393017 10.4477 0.229454 10.0544C0.0658912 9.66104 -0.0125617 9.23789 -0.000802004 8.81243C0.00315706 8.29123 0.0899002 7.77393 0.256222 7.27963C0.510153 6.55437 0.807854 5.84499 1.1477 5.15535L3.68089 0H6.88558L5.22304 6.13809C5.67962 6.42888 6.0539 6.83077 6.31041 7.30564C6.56693 7.78051 6.69716 8.31263 6.68876 8.85155C6.6973 9.27271 6.61514 9.69081 6.44781 10.0778C6.28048 10.4648 6.03184 10.8118 5.71856 11.0955C5.07153 11.6988 4.21111 12.0238 3.3243 12C2.8878 12.0129 2.45307 11.9396 2.04527 11.7843C1.63748 11.629 1.26471 11.3949 0.948566 11.0955ZM9.05292 11.0955C8.74161 10.8029 8.49593 10.4483 8.33194 10.0549C8.16795 9.6615 8.08934 9.23811 8.10124 8.81243C8.1052 8.29123 8.19194 7.77393 8.35826 7.27963C8.61322 6.55476 8.91089 5.84544 9.24974 5.15535L11.7829 0H15.0015L13.339 6.13809C13.7948 6.42948 14.1684 6.83155 14.4245 7.30633C14.6805 7.78111 14.8106 8.31293 14.8024 8.85155C14.8109 9.27271 14.7288 9.69081 14.5614 10.0778C14.3941 10.4648 14.1455 10.8118 13.8322 11.0955C13.1851 11.6988 12.3247 12.0238 11.4379 12C11.0017 12.0131 10.5673 11.9399 10.1599 11.7846C9.7524 11.6293 9.38007 11.3951 9.0645 11.0955H9.05292Z" fill="#24BCEB"/>
</g>
<defs>
<clipPath id="clip0_508_178">
<rect width="15" height="12" fill="white"/>
</clipPath>
</defs>
</svg>
