<svg width="103" height="47" viewBox="0 0 103 47" fill="none" xmlns="http://www.w3.org/2000/svg">
<g clip-path="url(#clip0_568_262)">
<path d="M35.3595 9.23001H29.2695V33.65H35.3595V9.23001Z" fill="#2D333D"/>
<path d="M102.35 9.23999H96.2402V33.66H102.35V9.23999Z" fill="#2D333D"/>
<path d="M25.26 9.23001L16.51 33.66H8.76L0 9.23001H6.25L12.64 27.06L19.01 9.23001H25.26Z" fill="#2D333D"/>
<path d="M51.6302 9.23999C49.2144 9.23802 46.8523 9.95269 44.8429 11.2936C42.8334 12.6345 41.2669 14.5413 40.3415 16.7728C39.4161 19.0043 39.1735 21.4602 39.6443 23.8296C40.1151 26.199 41.2782 28.3756 42.9864 30.0838C44.6946 31.792 46.8711 32.9551 49.2406 33.4259C51.61 33.8967 54.0659 33.654 56.2973 32.7286C58.5288 31.8033 60.4357 30.2367 61.7766 28.2273C63.1175 26.2178 63.8321 23.8558 63.8302 21.44C63.8249 18.206 62.5378 15.1059 60.251 12.8191C57.9642 10.5323 54.8642 9.24528 51.6302 9.23999ZM51.6302 27.55C50.4226 27.546 49.2432 27.1843 48.2411 26.5106C47.2389 25.8368 46.4589 24.8812 45.9995 23.7644C45.5401 22.6476 45.422 21.4197 45.66 20.2358C45.898 19.0519 46.4815 17.9651 47.3368 17.1126C48.1921 16.2601 49.2808 15.6801 50.4655 15.446C51.6502 15.2118 52.8777 15.334 53.9929 15.797C55.1082 16.2601 56.0613 17.0432 56.7318 18.0475C57.4023 19.0519 57.7602 20.2324 57.7602 21.44C57.7615 22.2444 57.6037 23.0412 57.2959 23.7844C56.988 24.5276 56.5362 25.2026 55.9665 25.7705C55.3967 26.3384 54.7203 26.7879 53.9761 27.0933C53.2318 27.3988 52.4346 27.5539 51.6302 27.55Z" fill="#2D333D"/>
<path d="M79.4798 9.23999C77.064 9.23802 74.7019 9.95269 72.6925 11.2936C70.683 12.6345 69.1165 14.5413 68.1911 16.7728C67.2657 19.0043 67.0231 21.4602 67.4939 23.8296C67.9647 26.199 69.1278 28.3756 70.836 30.0838C72.5442 31.792 74.7207 32.9551 77.0902 33.4259C79.4596 33.8967 81.9155 33.654 84.147 32.7286C86.3785 31.8033 88.2853 30.2367 89.6262 28.2273C90.9671 26.2178 91.6817 23.8558 91.6798 21.44C91.6745 18.206 90.3874 15.1059 88.1006 12.8191C85.8138 10.5323 82.7138 9.24528 79.4798 9.23999ZM79.4798 27.55C78.2713 27.55 77.09 27.1917 76.0852 26.5203C75.0805 25.8489 74.2973 24.8946 73.8349 23.7782C73.3724 22.6617 73.2514 21.4332 73.4872 20.248C73.7229 19.0628 74.3048 17.9741 75.1593 17.1196C76.0138 16.2651 77.1025 15.6831 78.2878 15.4474C79.473 15.2116 80.7015 15.3326 81.818 15.7951C82.9344 16.2575 83.8887 17.0407 84.56 18.0455C85.2314 19.0502 85.5898 20.2315 85.5898 21.44C85.5911 22.2427 85.4339 23.0378 85.1273 23.7797C84.8208 24.5216 84.3708 25.1957 83.8031 25.7634C83.2355 26.331 82.5614 26.781 81.8195 27.0876C81.0776 27.3942 80.2825 27.5513 79.4798 27.55Z" fill="#2D333D"/>
<path d="M84.9401 37.67C84.3759 38.442 83.6367 39.0692 82.7833 39.5003C81.9298 39.9314 80.9863 40.154 80.0301 40.15C79.0749 40.1485 78.1334 39.9234 77.2808 39.4927C76.4282 39.0621 75.6882 38.4379 75.1201 37.67H68.3701C69.1403 40.1595 70.6873 42.3369 72.7846 43.8834C74.8819 45.43 77.4193 46.2643 80.0251 46.2643C82.631 46.2643 85.1684 45.43 87.2657 43.8834C89.363 42.3369 90.91 40.1595 91.6801 37.67H84.9401Z" fill="#0974E4"/>
<path d="M96.25 2.24L102.36 0V7.23H96.25V2.24Z" fill="#0974E4"/>
</g>
<defs>
<clipPath id="clip0_568_262">
<rect width="102.36" height="46.25" fill="white"/>
</clipPath>
</defs>
</svg>
